<svg width="15" height="15" viewBox="0 0 15 15" fill="none" xmlns="http://www.w3.org/2000/svg">
<g clip-path="url(#clip0_12830_27080)">
<path d="M7.45896 14.6412C11.3546 14.6412 14.5127 11.4831 14.5127 7.58744C14.5127 3.69176 11.3546 0.533691 7.45896 0.533691C3.56328 0.533691 0.405212 3.69176 0.405212 7.58744C0.405212 11.4831 3.56328 14.6412 7.45896 14.6412Z" fill="white"/>
<path d="M7.50003 3.18286C5.02386 3.18286 4.40112 5.51935 4.40112 7.50005C4.40112 9.48099 5.02362 11.8172 7.50003 11.8172C9.97597 11.8172 10.5987 9.48099 10.5987 7.50005C10.5987 5.51935 9.97597 3.18286 7.50003 3.18286ZM7.50003 4.81083C7.60058 4.81083 7.69222 4.8263 7.77847 4.84763C7.95683 5.00138 8.04401 5.21349 7.87292 5.50927L6.22386 8.53974C6.17323 8.1563 6.16597 7.78036 6.16597 7.49981C6.16597 6.62747 6.22644 4.81083 7.50003 4.81083ZM8.73425 6.20794C8.82167 6.67294 8.83409 7.15856 8.83409 7.50005C8.83409 8.37263 8.77362 10.1895 7.5005 10.1895C7.40019 10.1895 7.30784 10.179 7.22206 10.1576C7.20565 10.1527 7.19065 10.1475 7.17472 10.1419C7.14847 10.1344 7.12081 10.126 7.09597 10.1161C6.81237 9.99544 6.63378 9.77724 6.89112 9.39122L8.73425 6.20794Z" fill="#2D364F"/>
<path d="M7.4843 0C5.40375 0 3.65016 0.724219 2.22164 2.17969C1.49813 2.9032 0.945937 3.7282 0.561797 4.64813C0.186797 5.55914 0 6.50883 0 7.5C0 8.50031 0.186797 9.45 0.561797 10.3519C0.936797 11.2542 1.48078 12.0656 2.19516 12.7884C2.9182 13.503 3.73008 14.0538 4.63219 14.4377C5.54297 14.8132 6.49289 14.9998 7.4843 14.9998C8.47547 14.9998 9.43898 14.8062 10.3678 14.422C11.2964 14.0379 12.1247 13.4859 12.8571 12.7624C13.5628 12.075 14.0967 11.2866 14.4537 10.3938C14.8195 9.49219 15 8.52727 15 7.5C15 6.48211 14.8195 5.51859 14.4539 4.61648C14.0878 3.70594 13.552 2.90086 12.8468 2.19539C11.373 0.731016 9.58242 0 7.4843 0ZM7.5157 1.34977C9.21211 1.34977 10.6591 1.95117 11.8643 3.15656C12.4448 3.73711 12.8897 4.40109 13.1932 5.14195C13.497 5.88305 13.65 6.66961 13.65 7.5C13.65 9.22359 13.0603 10.6533 11.8908 11.7961C11.2833 12.3858 10.6012 12.8384 9.84234 13.151C9.09234 13.4637 8.31938 13.6184 7.5157 13.6184C6.70289 13.6184 5.92477 13.4653 5.18391 13.1618C4.44258 12.8491 3.77742 12.4029 3.18797 11.8221C2.59852 11.2329 2.14383 10.5675 1.8225 9.82617C1.51008 9.07641 1.34977 8.3032 1.34977 7.49953C1.34977 6.68695 1.51008 5.90883 1.8225 5.16773C2.14383 4.41773 2.59875 3.74414 3.18797 3.14555C4.3575 1.94953 5.80125 1.34977 7.5157 1.34977Z" fill="#2D364F"/>
</g>
<defs>
<clipPath id="clip0_12830_27080">
<rect width="15" height="15" fill="white"/>
</clipPath>
</defs>
</svg>
