<svg width="49" height="15" viewBox="0 0 49 15" fill="none" xmlns="http://www.w3.org/2000/svg">
<g clip-path="url(#clip0_1682_2974)">
<path d="M7.53222 14.199C11.1923 14.199 14.1594 11.2319 14.1594 7.57177C14.1594 3.91167 11.1923 0.94458 7.53222 0.94458C3.87212 0.94458 0.905029 3.91167 0.905029 7.57177C0.905029 11.2319 3.87212 14.199 7.53222 14.199Z" fill="white"/>
<path d="M7.48664 0C9.5932 0 11.3702 0.723047 12.8168 2.16961C14.2718 3.62508 15 5.40188 15 7.5C15 9.60727 14.2854 11.3616 12.8566 12.7631C11.3388 14.2545 9.54891 15 7.48664 15C5.45953 15 3.70078 14.2631 2.20992 12.7898C0.736875 11.3166 0 9.55359 0 7.5C0 5.44664 0.736875 3.66984 2.20992 2.16984C3.65648 0.723047 5.415 0 7.48664 0ZM7.51336 1.35281C5.80805 1.35281 4.36617 1.95117 3.1875 3.14742C1.96406 4.39758 1.35258 5.84859 1.35258 7.50023C1.35258 9.16102 1.95961 10.5987 3.17367 11.8123C4.38797 13.0268 5.8343 13.6336 7.51289 13.6336C9.18234 13.6336 10.638 13.0226 11.8791 11.7989C13.0577 10.665 13.647 9.23203 13.647 7.49977C13.647 5.79445 13.0486 4.34391 11.8526 3.14719C10.6563 1.95094 9.20977 1.35281 7.51336 1.35281ZM9.52242 5.63836V8.70516H8.66555V12.3478H6.33492V8.70539H5.47805V5.63836C5.47805 5.5043 5.52492 5.39063 5.61844 5.29688C5.71242 5.20336 5.82633 5.15625 5.95992 5.15625H9.04055C9.16547 5.15625 9.27727 5.20313 9.37523 5.29688C9.47297 5.39063 9.52242 5.50453 9.52242 5.63836ZM6.45516 3.70992C6.45516 3.00492 6.8032 2.65195 7.5 2.65195C8.1968 2.65195 8.54461 3.00445 8.54461 3.70992C8.54461 4.40625 8.19633 4.75453 7.5 4.75453C6.80367 4.75453 6.45516 4.40625 6.45516 3.70992Z" fill="#2D364F"/>
</g>
<g clip-path="url(#clip1_1682_2974)">
<path d="M24.493 14.4626C28.3077 14.4626 31.4002 11.3701 31.4002 7.55534C31.4002 3.74056 28.3077 0.648071 24.493 0.648071C20.6782 0.648071 17.5857 3.74056 17.5857 7.55534C17.5857 11.3701 20.6782 14.4626 24.493 14.4626Z" fill="white"/>
<path d="M24.4864 0C26.5934 0 28.3702 0.723047 29.8168 2.16938C31.2718 3.61594 32 5.39273 32 7.5C32 9.6075 31.2856 11.3616 29.8566 12.7636C28.3391 14.2547 26.5487 15 24.4864 15C22.4506 15 20.6919 14.2589 19.2099 12.777C17.7369 11.3034 17 9.54492 17 7.5C17 5.44641 17.7369 3.66961 19.2099 2.16961C20.6562 0.723281 22.415 0 24.4864 0ZM18.6875 5.47781C18.4644 6.09375 18.3526 6.76805 18.3526 7.50023C18.3526 9.16102 18.9596 10.5987 20.1737 11.8127C21.3969 13.0184 22.8434 13.6209 24.5129 13.6209C26.2006 13.6209 27.6556 13.0097 28.8793 11.786C29.3169 11.3665 29.6602 10.9289 29.9101 10.473L27.0845 9.21422C26.9858 9.68766 26.7472 10.0737 26.368 10.3725C25.9878 10.6716 25.5395 10.8438 25.0217 10.8881V12.0401H24.1513V10.8881C23.3209 10.8797 22.5617 10.5806 21.8745 9.99117L22.9058 8.94656C23.3966 9.40172 23.9548 9.6293 24.5799 9.6293C24.8387 9.6293 25.0599 9.57164 25.2432 9.45516C25.426 9.33937 25.5179 9.14766 25.5179 8.8793C25.5179 8.69156 25.4506 8.53992 25.3168 8.42391L24.5938 8.1157L23.7099 7.71375L22.5179 7.19133L18.6875 5.47781ZM24.5134 1.33922C22.808 1.33922 21.3662 1.9418 20.1875 3.14719C19.8927 3.44203 19.6159 3.77672 19.3571 4.15195L22.2233 5.4375C22.3482 5.04469 22.5847 4.72992 22.9332 4.49344C23.281 4.25695 23.6874 4.12523 24.152 4.09828V2.94633H25.0227V4.09828C25.7103 4.13414 26.3352 4.36617 26.8977 4.79461L25.9198 5.79914C25.4996 5.50453 25.0716 5.35734 24.6341 5.35734C24.4018 5.35734 24.1944 5.40211 24.0116 5.49117C23.8285 5.58047 23.7369 5.73234 23.7369 5.94656C23.7369 6.00914 23.7591 6.07148 23.8037 6.13406L24.7545 6.56297L25.4108 6.85758L26.6164 7.39313L30.4595 9.10734C30.5848 8.58047 30.6472 8.04492 30.6472 7.50023C30.6472 5.77687 30.0491 4.32609 28.8528 3.14719C27.6652 1.9418 26.2182 1.33922 24.5134 1.33922Z" fill="#2D364F"/>
</g>
<g clip-path="url(#clip2_1682_2974)">
<path d="M41.3696 14.3522C45.137 14.3522 48.1911 11.2981 48.1911 7.53071C48.1911 3.76331 45.137 0.709229 41.3696 0.709229C37.6022 0.709229 34.5481 3.76331 34.5481 7.53071C34.5481 11.2981 37.6022 14.3522 41.3696 14.3522Z" fill="white"/>
<path d="M41.4866 0C43.5845 0 45.3611 0.727734 46.8168 2.1832C48.2718 3.62977 49 5.40188 49 7.5C49 9.59859 48.2854 11.3571 46.8566 12.7767C45.348 14.2589 43.5576 15 41.4866 15C39.4595 15 37.7008 14.2634 36.2099 12.7901C34.7369 11.317 34 9.55406 34 7.50023C34 5.45578 34.7369 3.68344 36.2099 2.18344C37.6652 0.727734 39.4241 0 41.4866 0ZM41.5134 1.35281C39.808 1.35281 38.3662 1.95563 37.1875 3.16102C35.9641 4.40227 35.3526 5.84859 35.3526 7.5C35.3526 9.16992 35.9596 10.6071 37.1737 11.8125C38.388 13.027 39.8343 13.6338 41.5129 13.6338C43.1823 13.6338 44.638 13.0223 45.8791 11.7991C47.0577 10.6563 47.647 9.22336 47.647 7.5C47.647 5.78602 47.0486 4.33945 45.8526 3.16102C44.665 1.95516 43.2184 1.35281 41.5134 1.35281ZM38.1651 6.4418C38.3078 5.52211 38.6781 4.81008 39.2765 4.3057C39.8746 3.80133 40.6021 3.54914 41.4595 3.54914C42.6377 3.54914 43.5756 3.92883 44.272 4.68727C44.9683 5.44617 45.3166 6.41953 45.3166 7.60688C45.3166 8.75883 44.9549 9.71625 44.2321 10.4794C43.5084 11.2425 42.5713 11.6245 41.4191 11.6245C40.5709 11.6245 39.8388 11.3702 39.2228 10.8612C38.6066 10.3521 38.2363 9.62906 38.1112 8.69156H40C40.0445 9.60234 40.5937 10.0577 41.6474 10.0577C42.1738 10.0577 42.5983 9.82992 42.9196 9.37477C43.2414 8.91961 43.4022 8.31211 43.4022 7.55344C43.4022 6.75867 43.2548 6.15398 42.9604 5.73867C42.6655 5.32359 42.2418 5.11594 41.6877 5.11594C40.6874 5.11594 40.1252 5.55773 40.0002 6.44156H40.5494L39.063 7.9282L37.5763 6.44156L38.1651 6.4418Z" fill="#2D364F"/>
</g>
<defs>
<clipPath id="clip0_1682_2974">
<rect width="15" height="15" fill="white"/>
</clipPath>
<clipPath id="clip1_1682_2974">
<rect width="15" height="15" fill="white" transform="translate(17)"/>
</clipPath>
<clipPath id="clip2_1682_2974">
<rect width="15" height="15" fill="white" transform="translate(34)"/>
</clipPath>
</defs>
</svg>
