<svg width="50" height="16" viewBox="0 0 50 16" fill="none" xmlns="http://www.w3.org/2000/svg">
<g clip-path="url(#clip0_1682_2975)">
<path d="M7.92504 14.9774C11.5851 14.9774 14.5522 12.0103 14.5522 8.35021C14.5522 4.69012 11.5851 1.72302 7.92504 1.72302C4.26494 1.72302 1.29785 4.69012 1.29785 8.35021C1.29785 12.0103 4.26494 14.9774 7.92504 14.9774Z" fill="white"/>
<path d="M7.87946 0.778442C9.98603 0.778442 11.7631 1.50149 13.2096 2.94805C14.6646 4.40352 15.3928 6.18032 15.3928 8.27844C15.3928 10.3857 14.6782 12.14 13.2495 13.5416C11.7317 15.0329 9.94173 15.7784 7.87946 15.7784C5.85235 15.7784 4.0936 15.0416 2.60274 13.5683C1.1297 12.095 0.392822 10.332 0.392822 8.27844C0.392822 6.22508 1.1297 4.44829 2.60274 2.94829C4.04931 1.50149 5.80782 0.778442 7.87946 0.778442ZM7.90618 2.13125C6.20087 2.13125 4.75899 2.72961 3.58032 3.92586C2.35688 5.17602 1.7454 6.62704 1.7454 8.27868C1.7454 9.93946 2.35243 11.3771 3.56649 12.5907C4.78079 13.8052 6.22712 14.412 7.90571 14.412C9.57517 14.412 11.0309 13.801 12.2719 12.5773C13.4506 11.4434 14.0398 10.0105 14.0398 8.27821C14.0398 6.5729 13.4414 5.12235 12.2454 3.92563C11.0492 2.72938 9.60259 2.13125 7.90618 2.13125ZM9.91524 6.4168V9.4836H9.05837V13.1263H6.72774V9.48383H5.87087V6.4168C5.87087 6.28274 5.91774 6.16907 6.01126 6.07532C6.10524 5.9818 6.21915 5.93469 6.35274 5.93469H9.43337C9.55829 5.93469 9.67009 5.98157 9.76806 6.07532C9.86579 6.16907 9.91524 6.28297 9.91524 6.4168ZM6.84798 4.48836C6.84798 3.78336 7.19603 3.4304 7.89282 3.4304C8.58962 3.4304 8.93743 3.7829 8.93743 4.48836C8.93743 5.18469 8.58915 5.53297 7.89282 5.53297C7.19649 5.53297 6.84798 5.18469 6.84798 4.48836Z" fill="#2D364F"/>
</g>
<g clip-path="url(#clip1_1682_2975)">
<path d="M24.8858 15.241C28.7006 15.241 31.793 12.1486 31.793 8.33378C31.793 4.519 28.7006 1.42651 24.8858 1.42651C21.071 1.42651 17.9785 4.519 17.9785 8.33378C17.9785 12.1486 21.071 15.241 24.8858 15.241Z" fill="white"/>
<path d="M24.8792 0.778442C26.9863 0.778442 28.7631 1.50149 30.2096 2.94782C31.6646 4.39438 32.3928 6.17118 32.3928 8.27844C32.3928 10.3859 31.6784 12.14 30.2495 13.542C28.7319 15.0331 26.9415 15.7784 24.8792 15.7784C22.8434 15.7784 21.0847 15.0373 19.6027 13.5554C18.1297 12.0819 17.3928 10.3234 17.3928 8.27844C17.3928 6.22485 18.1297 4.44805 19.6027 2.94805C21.0491 1.50172 22.8078 0.778442 24.8792 0.778442ZM19.0803 6.25625C18.8572 6.87219 18.7454 7.54649 18.7454 8.27868C18.7454 9.93946 19.3524 11.3771 20.5665 12.5912C21.7897 13.7968 23.2363 14.3994 24.9057 14.3994C26.5934 14.3994 28.0484 13.7881 29.2721 12.5645C29.7097 12.1449 30.0531 11.7073 30.3029 11.2515L27.4773 9.99266C27.3786 10.4661 27.14 10.8521 26.7608 11.1509C26.3806 11.45 25.9323 11.6223 25.4145 11.6666V12.8185H24.5441V11.6666C23.7137 11.6581 22.9545 11.3591 22.2674 10.7696L23.2986 9.72501C23.7894 10.1802 24.3477 10.4077 24.9727 10.4077C25.2315 10.4077 25.4527 10.3501 25.636 10.2336C25.8188 10.1178 25.9107 9.9261 25.9107 9.65774C25.9107 9.47 25.8434 9.31836 25.7096 9.20235L24.9866 8.89415L24.1027 8.49219L22.9107 7.96977L19.0803 6.25625ZM24.9062 2.11766C23.2009 2.11766 21.759 2.72024 20.5803 3.92563C20.2855 4.22047 20.0087 4.55516 19.7499 4.9304L22.6161 6.21594C22.741 5.82313 22.9775 5.50836 23.326 5.27188C23.6738 5.0354 24.0802 4.90368 24.5448 4.87672V3.72477H25.4155V4.87672C26.1031 4.91258 26.728 5.14461 27.2905 5.57305L26.3127 6.57758C25.8924 6.28297 25.4645 6.13579 25.0269 6.13579C24.7946 6.13579 24.5872 6.18055 24.4044 6.26961C24.2213 6.35891 24.1297 6.51079 24.1297 6.725C24.1297 6.78758 24.152 6.84993 24.1965 6.91251L25.1474 7.34141L25.8036 7.63602L27.0092 8.17157L30.8523 9.88579C30.9777 9.35891 31.04 8.82336 31.04 8.27868C31.04 6.55532 30.4419 5.10454 29.2456 3.92563C28.0581 2.72024 26.611 2.11766 24.9062 2.11766Z" fill="#2D364F"/>
</g>
<g clip-path="url(#clip2_1682_2975)">
<path d="M41.9079 15.0287C45.6633 15.0287 48.7076 11.9843 48.7076 8.22881C48.7076 4.47335 45.6633 1.42896 41.9079 1.42896C38.1525 1.42896 35.1082 4.47335 35.1082 8.22881C35.1082 11.9843 38.1525 15.0287 41.9079 15.0287Z" fill="white"/>
<path d="M41.8795 0.778442C43.9778 0.778442 45.7543 1.50629 47.21 2.96152C48.6648 4.40805 49.3928 6.17982 49.3928 8.27844C49.3928 10.3771 48.6783 12.1356 47.2494 13.5551C45.7406 15.0373 43.9503 15.7784 41.8793 15.7784C39.8523 15.7784 38.0936 15.0419 36.6028 13.5684C35.1297 12.0955 34.3928 10.332 34.3928 8.27867C34.3928 6.23407 35.1297 4.46184 36.6028 2.96198C38.0584 1.50629 39.8174 0.778442 41.8795 0.778442ZM41.9069 2.13113C40.2018 2.13113 38.7594 2.73355 37.5808 3.9393C36.3573 5.18076 35.7458 6.62706 35.7458 8.27844C35.7458 9.94836 36.3528 11.3855 37.5669 12.591C38.7812 13.8055 40.2275 14.4122 41.9064 14.4122C43.5759 14.4122 45.0311 13.8009 46.2721 12.5775C47.4506 11.4347 48.0399 10.0019 48.0399 8.27844C48.0399 6.56458 47.4414 5.11804 46.2455 3.9393C45.0579 2.73355 43.6116 2.13113 41.9069 2.13113ZM44.7326 6.51033V7.79596H39.2818V6.51033H44.7326ZM44.7326 8.92137V10.2061H39.2818V8.92137H44.7326Z" fill="#2D364F"/>
</g>
<defs>
<clipPath id="clip0_1682_2975">
<rect width="15" height="15" fill="white" transform="translate(0.392822 0.778442)"/>
</clipPath>
<clipPath id="clip1_1682_2975">
<rect width="15" height="15" fill="white" transform="translate(17.3928 0.778442)"/>
</clipPath>
<clipPath id="clip2_1682_2975">
<rect width="15" height="15" fill="white" transform="translate(34.3928 0.778442)"/>
</clipPath>
</defs>
</svg>
