<svg width="32" height="15" viewBox="0 0 32 15" fill="none" xmlns="http://www.w3.org/2000/svg">
<g clip-path="url(#clip0_1682_2973)">
<path d="M7.53222 14.199C11.1923 14.199 14.1594 11.2319 14.1594 7.57177C14.1594 3.91167 11.1923 0.94458 7.53222 0.94458C3.87212 0.94458 0.905029 3.91167 0.905029 7.57177C0.905029 11.2319 3.87212 14.199 7.53222 14.199Z" fill="white"/>
<path d="M7.48664 0C9.5932 0 11.3702 0.723047 12.8168 2.16961C14.2718 3.62508 15 5.40188 15 7.5C15 9.60727 14.2854 11.3616 12.8566 12.7631C11.3388 14.2545 9.54891 15 7.48664 15C5.45953 15 3.70078 14.2631 2.20992 12.7898C0.736875 11.3166 0 9.55359 0 7.5C0 5.44664 0.736875 3.66984 2.20992 2.16984C3.65648 0.723047 5.415 0 7.48664 0ZM7.51336 1.35281C5.80805 1.35281 4.36617 1.95117 3.1875 3.14742C1.96406 4.39758 1.35258 5.84859 1.35258 7.50023C1.35258 9.16102 1.95961 10.5987 3.17367 11.8123C4.38797 13.0268 5.8343 13.6336 7.51289 13.6336C9.18234 13.6336 10.638 13.0226 11.8791 11.7989C13.0577 10.665 13.647 9.23203 13.647 7.49977C13.647 5.79445 13.0486 4.34391 11.8526 3.14719C10.6563 1.95094 9.20977 1.35281 7.51336 1.35281ZM9.52242 5.63836V8.70516H8.66555V12.3478H6.33492V8.70539H5.47805V5.63836C5.47805 5.5043 5.52492 5.39063 5.61844 5.29688C5.71242 5.20336 5.82633 5.15625 5.95992 5.15625H9.04055C9.16547 5.15625 9.27727 5.20313 9.37523 5.29688C9.47297 5.39063 9.52242 5.50453 9.52242 5.63836ZM6.45516 3.70992C6.45516 3.00492 6.8032 2.65195 7.5 2.65195C8.1968 2.65195 8.54461 3.00445 8.54461 3.70992C8.54461 4.40625 8.19633 4.75453 7.5 4.75453C6.80367 4.75453 6.45516 4.40625 6.45516 3.70992Z" fill="#2D364F"/>
</g>
<g clip-path="url(#clip1_1682_2973)">
<path d="M24.493 14.4626C28.3077 14.4626 31.4002 11.3701 31.4002 7.55534C31.4002 3.74056 28.3077 0.648071 24.493 0.648071C20.6782 0.648071 17.5857 3.74056 17.5857 7.55534C17.5857 11.3701 20.6782 14.4626 24.493 14.4626Z" fill="white"/>
<path d="M24.4864 0C26.5934 0 28.3702 0.723047 29.8168 2.16938C31.2718 3.61594 32 5.39273 32 7.5C32 9.6075 31.2856 11.3616 29.8566 12.7636C28.3391 14.2547 26.5487 15 24.4864 15C22.4506 15 20.6919 14.2589 19.2099 12.777C17.7369 11.3034 17 9.54492 17 7.5C17 5.44641 17.7369 3.66961 19.2099 2.16961C20.6562 0.723281 22.415 0 24.4864 0ZM18.6875 5.47781C18.4644 6.09375 18.3526 6.76805 18.3526 7.50023C18.3526 9.16102 18.9596 10.5987 20.1737 11.8127C21.3969 13.0184 22.8434 13.6209 24.5129 13.6209C26.2006 13.6209 27.6556 13.0097 28.8793 11.786C29.3169 11.3665 29.6602 10.9289 29.9101 10.473L27.0845 9.21422C26.9858 9.68766 26.7472 10.0737 26.368 10.3725C25.9878 10.6716 25.5395 10.8438 25.0217 10.8881V12.0401H24.1513V10.8881C23.3209 10.8797 22.5617 10.5806 21.8745 9.99117L22.9058 8.94656C23.3966 9.40172 23.9548 9.6293 24.5799 9.6293C24.8387 9.6293 25.0599 9.57164 25.2432 9.45516C25.426 9.33937 25.5179 9.14766 25.5179 8.8793C25.5179 8.69156 25.4506 8.53992 25.3168 8.42391L24.5938 8.1157L23.7099 7.71375L22.5179 7.19133L18.6875 5.47781ZM24.5134 1.33922C22.808 1.33922 21.3662 1.9418 20.1875 3.14719C19.8927 3.44203 19.6159 3.77672 19.3571 4.15195L22.2233 5.4375C22.3482 5.04469 22.5847 4.72992 22.9332 4.49344C23.281 4.25695 23.6874 4.12523 24.152 4.09828V2.94633H25.0227V4.09828C25.7103 4.13414 26.3352 4.36617 26.8977 4.79461L25.9198 5.79914C25.4996 5.50453 25.0716 5.35734 24.6341 5.35734C24.4018 5.35734 24.1944 5.40211 24.0116 5.49117C23.8285 5.58047 23.7369 5.73234 23.7369 5.94656C23.7369 6.00914 23.7591 6.07148 23.8037 6.13406L24.7545 6.56297L25.4108 6.85758L26.6164 7.39313L30.4595 9.10734C30.5848 8.58047 30.6472 8.04492 30.6472 7.50023C30.6472 5.77687 30.0491 4.32609 28.8528 3.14719C27.6652 1.9418 26.2182 1.33922 24.5134 1.33922Z" fill="#2D364F"/>
</g>
<defs>
<clipPath id="clip0_1682_2973">
<rect width="15" height="15" fill="white"/>
</clipPath>
<clipPath id="clip1_1682_2973">
<rect width="15" height="15" fill="white" transform="translate(17)"/>
</clipPath>
</defs>
</svg>
