<svg width="31" height="15" viewBox="0 0 31 15" fill="none" xmlns="http://www.w3.org/2000/svg">
<g clip-path="url(#clip0_1682_2830)">
<path d="M7.53222 14.199C11.1923 14.199 14.1594 11.2319 14.1594 7.57177C14.1594 3.91167 11.1923 0.94458 7.53222 0.94458C3.87212 0.94458 0.905029 3.91167 0.905029 7.57177C0.905029 11.2319 3.87212 14.199 7.53222 14.199Z" fill="white"/>
<path d="M7.48664 0C9.5932 0 11.3702 0.723047 12.8168 2.16961C14.2718 3.62508 15 5.40188 15 7.5C15 9.60727 14.2854 11.3616 12.8566 12.7631C11.3388 14.2545 9.54891 15 7.48664 15C5.45953 15 3.70078 14.2631 2.20992 12.7898C0.736875 11.3166 0 9.55359 0 7.5C0 5.44664 0.736875 3.66984 2.20992 2.16984C3.65648 0.723047 5.415 0 7.48664 0ZM7.51336 1.35281C5.80805 1.35281 4.36617 1.95117 3.1875 3.14742C1.96406 4.39758 1.35258 5.84859 1.35258 7.50023C1.35258 9.16102 1.95961 10.5987 3.17367 11.8123C4.38797 13.0268 5.8343 13.6336 7.51289 13.6336C9.18234 13.6336 10.638 13.0226 11.8791 11.7989C13.0577 10.665 13.647 9.23203 13.647 7.49977C13.647 5.79445 13.0486 4.34391 11.8526 3.14719C10.6563 1.95094 9.20977 1.35281 7.51336 1.35281ZM9.52242 5.63836V8.70516H8.66555V12.3478H6.33492V8.70539H5.47805V5.63836C5.47805 5.5043 5.52492 5.39063 5.61844 5.29688C5.71242 5.20336 5.82633 5.15625 5.95992 5.15625H9.04055C9.16547 5.15625 9.27727 5.20313 9.37523 5.29688C9.47297 5.39063 9.52242 5.50453 9.52242 5.63836ZM6.45516 3.70992C6.45516 3.00492 6.8032 2.65195 7.5 2.65195C8.1968 2.65195 8.54461 3.00445 8.54461 3.70992C8.54461 4.40625 8.19633 4.75453 7.5 4.75453C6.80367 4.75453 6.45516 4.40625 6.45516 3.70992Z" fill="#2D364F"/>
</g>
<g clip-path="url(#clip1_1682_2830)">
<path d="M23.3696 14.3522C27.137 14.3522 30.1911 11.2981 30.1911 7.53071C30.1911 3.76331 27.137 0.709229 23.3696 0.709229C19.6022 0.709229 16.5481 3.76331 16.5481 7.53071C16.5481 11.2981 19.6022 14.3522 23.3696 14.3522Z" fill="white"/>
<path d="M23.4866 0C25.5845 0 27.3611 0.727734 28.8168 2.1832C30.2718 3.62977 31 5.40188 31 7.5C31 9.59859 30.2854 11.3571 28.8566 12.7767C27.348 14.2589 25.5576 15 23.4866 15C21.4595 15 19.7008 14.2634 18.2099 12.7901C16.7369 11.317 16 9.55406 16 7.50023C16 5.45578 16.7369 3.68344 18.2099 2.18344C19.6652 0.727734 21.4241 0 23.4866 0ZM23.5134 1.35281C21.808 1.35281 20.3662 1.95563 19.1875 3.16102C17.9641 4.40227 17.3526 5.84859 17.3526 7.5C17.3526 9.16992 17.9596 10.6071 19.1737 11.8125C20.388 13.027 21.8343 13.6338 23.5129 13.6338C25.1823 13.6338 26.638 13.0223 27.8791 11.7991C29.0577 10.6563 29.647 9.22336 29.647 7.5C29.647 5.78602 29.0486 4.33945 27.8526 3.16102C26.665 1.95516 25.2184 1.35281 23.5134 1.35281ZM20.1651 6.4418C20.3078 5.52211 20.6781 4.81008 21.2765 4.3057C21.8746 3.80133 22.6021 3.54914 23.4595 3.54914C24.6377 3.54914 25.5756 3.92883 26.272 4.68727C26.9683 5.44617 27.3166 6.41953 27.3166 7.60688C27.3166 8.75883 26.9549 9.71625 26.2321 10.4794C25.5084 11.2425 24.5713 11.6245 23.4191 11.6245C22.5709 11.6245 21.8388 11.3702 21.2228 10.8612C20.6066 10.3521 20.2363 9.62906 20.1112 8.69156H22C22.0445 9.60234 22.5937 10.0577 23.6474 10.0577C24.1738 10.0577 24.5983 9.82992 24.9196 9.37477C25.2414 8.91961 25.4022 8.31211 25.4022 7.55344C25.4022 6.75867 25.2548 6.15398 24.9604 5.73867C24.6655 5.32359 24.2418 5.11594 23.6877 5.11594C22.6874 5.11594 22.1252 5.55773 22.0002 6.44156H22.5494L21.063 7.9282L19.5763 6.44156L20.1651 6.4418Z" fill="#2D364F"/>
</g>
<defs>
<clipPath id="clip0_1682_2830">
<rect width="15" height="15" fill="white"/>
</clipPath>
<clipPath id="clip1_1682_2830">
<rect width="15" height="15" fill="white" transform="translate(16)"/>
</clipPath>
</defs>
</svg>
