<svg width="32" height="16" viewBox="0 0 32 16" fill="none" xmlns="http://www.w3.org/2000/svg">
<g clip-path="url(#clip0_1682_2976)">
<path d="M7.92504 14.9774C11.5851 14.9774 14.5522 12.0103 14.5522 8.35021C14.5522 4.69012 11.5851 1.72302 7.92504 1.72302C4.26494 1.72302 1.29785 4.69012 1.29785 8.35021C1.29785 12.0103 4.26494 14.9774 7.92504 14.9774Z" fill="white"/>
<path d="M7.87946 0.778442C9.98603 0.778442 11.7631 1.50149 13.2096 2.94805C14.6646 4.40352 15.3928 6.18032 15.3928 8.27844C15.3928 10.3857 14.6782 12.14 13.2495 13.5416C11.7317 15.0329 9.94173 15.7784 7.87946 15.7784C5.85235 15.7784 4.0936 15.0416 2.60274 13.5683C1.1297 12.095 0.392822 10.332 0.392822 8.27844C0.392822 6.22508 1.1297 4.44829 2.60274 2.94829C4.04931 1.50149 5.80782 0.778442 7.87946 0.778442ZM7.90618 2.13125C6.20087 2.13125 4.75899 2.72961 3.58032 3.92586C2.35688 5.17602 1.7454 6.62704 1.7454 8.27868C1.7454 9.93946 2.35243 11.3771 3.56649 12.5907C4.78079 13.8052 6.22712 14.412 7.90571 14.412C9.57517 14.412 11.0309 13.801 12.2719 12.5773C13.4506 11.4434 14.0398 10.0105 14.0398 8.27821C14.0398 6.5729 13.4414 5.12235 12.2454 3.92563C11.0492 2.72938 9.60259 2.13125 7.90618 2.13125ZM9.91524 6.4168V9.4836H9.05837V13.1263H6.72774V9.48383H5.87087V6.4168C5.87087 6.28274 5.91774 6.16907 6.01126 6.07532C6.10524 5.9818 6.21915 5.93469 6.35274 5.93469H9.43337C9.55829 5.93469 9.67009 5.98157 9.76806 6.07532C9.86579 6.16907 9.91524 6.28297 9.91524 6.4168ZM6.84798 4.48836C6.84798 3.78336 7.19603 3.4304 7.89282 3.4304C8.58962 3.4304 8.93743 3.7829 8.93743 4.48836C8.93743 5.18469 8.58915 5.53297 7.89282 5.53297C7.19649 5.53297 6.84798 5.18469 6.84798 4.48836Z" fill="#2D364F"/>
</g>
<g clip-path="url(#clip1_1682_2976)">
<path d="M23.9079 15.0287C27.6633 15.0287 30.7076 11.9843 30.7076 8.22881C30.7076 4.47335 27.6633 1.42896 23.9079 1.42896C20.1525 1.42896 17.1082 4.47335 17.1082 8.22881C17.1082 11.9843 20.1525 15.0287 23.9079 15.0287Z" fill="white"/>
<path d="M23.8795 0.778442C25.9778 0.778442 27.7543 1.50629 29.21 2.96152C30.6648 4.40805 31.3928 6.17982 31.3928 8.27844C31.3928 10.3771 30.6783 12.1356 29.2494 13.5551C27.7406 15.0373 25.9503 15.7784 23.8793 15.7784C21.8523 15.7784 20.0936 15.0419 18.6028 13.5684C17.1297 12.0955 16.3928 10.332 16.3928 8.27867C16.3928 6.23407 17.1297 4.46184 18.6028 2.96198C20.0584 1.50629 21.8174 0.778442 23.8795 0.778442ZM23.9069 2.13113C22.2018 2.13113 20.7594 2.73355 19.5808 3.9393C18.3573 5.18076 17.7458 6.62706 17.7458 8.27844C17.7458 9.94836 18.3528 11.3855 19.5669 12.591C20.7812 13.8055 22.2275 14.4122 23.9064 14.4122C25.5759 14.4122 27.0311 13.8009 28.2721 12.5775C29.4506 11.4347 30.0399 10.0019 30.0399 8.27844C30.0399 6.56458 29.4414 5.11804 28.2455 3.9393C27.0579 2.73355 25.6116 2.13113 23.9069 2.13113ZM26.7326 6.51033V7.79596H21.2818V6.51033H26.7326ZM26.7326 8.92137V10.2061H21.2818V8.92137H26.7326Z" fill="#2D364F"/>
</g>
<defs>
<clipPath id="clip0_1682_2976">
<rect width="15" height="15" fill="white" transform="translate(0.392822 0.778442)"/>
</clipPath>
<clipPath id="clip1_1682_2976">
<rect width="15" height="15" fill="white" transform="translate(16.3928 0.778442)"/>
</clipPath>
</defs>
</svg>
