<svg width="15" height="15" viewBox="0 0 15 15" fill="none" xmlns="http://www.w3.org/2000/svg">
<g clip-path="url(#clip0_12830_27007)">
<path d="M7.53209 14.199C11.1922 14.199 14.1593 11.2319 14.1593 7.57177C14.1593 3.91167 11.1922 0.94458 7.53209 0.94458C3.872 0.94458 0.904907 3.91167 0.904907 7.57177C0.904907 11.2319 3.872 14.199 7.53209 14.199Z" fill="white"/>
<path d="M7.48664 0C9.5932 0 11.3702 0.723047 12.8168 2.16961C14.2718 3.62508 15 5.40188 15 7.5C15 9.60727 14.2854 11.3616 12.8566 12.7631C11.3388 14.2545 9.54891 15 7.48664 15C5.45953 15 3.70078 14.2631 2.20992 12.7898C0.736875 11.3166 0 9.55359 0 7.5C0 5.44664 0.736875 3.66984 2.20992 2.16984C3.65648 0.723047 5.415 0 7.48664 0ZM7.51336 1.35281C5.80805 1.35281 4.36617 1.95117 3.1875 3.14742C1.96406 4.39758 1.35258 5.84859 1.35258 7.50023C1.35258 9.16102 1.95961 10.5987 3.17367 11.8123C4.38797 13.0268 5.8343 13.6336 7.51289 13.6336C9.18234 13.6336 10.638 13.0226 11.8791 11.7989C13.0577 10.665 13.647 9.23203 13.647 7.49977C13.647 5.79445 13.0486 4.34391 11.8526 3.14719C10.6563 1.95094 9.20977 1.35281 7.51336 1.35281ZM9.52242 5.63836V8.70516H8.66555V12.3478H6.33492V8.70539H5.47805V5.63836C5.47805 5.5043 5.52492 5.39062 5.61844 5.29688C5.71242 5.20336 5.82633 5.15625 5.95992 5.15625H9.04055C9.16547 5.15625 9.27727 5.20312 9.37523 5.29688C9.47297 5.39062 9.52242 5.50453 9.52242 5.63836ZM6.45516 3.70992C6.45516 3.00492 6.8032 2.65195 7.5 2.65195C8.1968 2.65195 8.54461 3.00445 8.54461 3.70992C8.54461 4.40625 8.19633 4.75453 7.5 4.75453C6.80367 4.75453 6.45516 4.40625 6.45516 3.70992Z" fill="#2D364F"/>
</g>
<defs>
<clipPath id="clip0_12830_27007">
<rect width="15" height="15" fill="white"/>
</clipPath>
</defs>
</svg>
