<svg width="16" height="16" viewBox="0 0 16 16" fill="none" xmlns="http://www.w3.org/2000/svg">
<g clip-path="url(#clip0_1682_2938)">
<path d="M7.89282 0.79541C3.75079 0.79541 0.392822 4.15338 0.392822 8.29541C0.392822 12.437 3.75079 15.7954 7.89282 15.7954C12.0349 15.7954 15.3928 12.437 15.3928 8.29541C15.3928 4.15334 12.0349 0.79541 7.89282 0.79541ZM7.89282 14.3891C4.53255 14.3891 1.79892 11.6552 1.79892 8.29541C1.79892 7.59201 1.92013 6.91654 2.14056 6.28783L4.52388 7.34912C4.4597 7.66807 4.42489 8.00076 4.42489 8.34439C4.42489 11.3385 6.65974 12.1822 8.06583 12.1822C8.89501 12.1822 9.61263 11.9145 10.1744 11.5219C10.2811 11.4453 10.3779 11.3683 10.4667 11.29L9.37337 9.9615C9.3413 9.99814 9.30782 10.033 9.27349 10.0642C8.84821 10.4674 8.38079 10.4674 8.27634 10.4674C7.13235 10.4674 6.65349 9.26041 6.64708 8.29353L13.2157 11.218C13.2235 11.2194 13.2299 11.2194 13.2363 11.2208C12.1998 13.1078 10.1932 14.3891 7.89282 14.3891ZM13.7652 9.85248L6.99032 6.82857C7.23478 6.38592 7.62384 6.05322 8.20603 6.05322C8.54353 6.05322 8.81114 6.16502 9.02192 6.30619C9.10942 6.36943 9.18552 6.43264 9.24966 6.49635L10.4709 5.23939C9.65063 4.53416 8.7181 4.40814 8.10821 4.40814C6.67509 4.40814 5.66099 5.02768 5.06321 5.96846L2.79767 4.95803C3.88806 3.2992 5.76431 2.20127 7.89282 2.20127C11.2531 2.20127 13.987 4.93471 13.987 8.29541C13.987 8.83936 13.9141 9.36584 13.7798 9.86811C13.7743 9.8626 13.7707 9.85799 13.7652 9.85248Z" fill="#2D364F"/>
</g>
<defs>
<clipPath id="clip0_1682_2938">
<rect width="15" height="15" fill="white" transform="translate(0.392822 0.778442)"/>
</clipPath>
</defs>
</svg>
