<svg width="33" height="16" viewBox="0 0 33 16" fill="none" xmlns="http://www.w3.org/2000/svg">
<path d="M24.8126 4.69473C26.604 4.69473 28.0316 6.12904 28.0316 7.86676C28.0316 9.60448 26.604 11.0664 24.8126 11.0664C23.0211 11.0664 21.5936 9.63207 21.5936 7.89434C21.5936 6.15662 23.0491 4.69473 24.8126 4.69473ZM24.8126 3.48108C22.3494 3.48108 20.334 5.43947 20.334 7.89434C20.334 10.3492 22.3214 12.3076 24.8126 12.3076C27.3038 12.3076 29.2912 10.3492 29.2912 7.89434C29.2912 5.43947 27.3038 3.48108 24.8126 3.48108Z" fill="#2D364F"/>
<path d="M0.376221 0.557129V15.2037H15.2676V0.557129H0.376221ZM1.60784 13.99V1.77078H14.008V13.99H1.60784Z" fill="#2D364F"/>
<path d="M9.08156 6.65308H6.59033V9.10795H9.08156V6.65308Z" fill="#2D364F"/>
<path d="M3.4834 3.59131V12.142H12.1607V3.59131H3.4834ZM4.71501 10.9284V4.83254H10.9291V10.9559L4.71501 10.9284Z" fill="#2D364F"/>
<path d="M24.8127 6.65308C24.1409 6.65308 23.5811 7.20473 23.5811 7.86672C23.5811 8.52871 24.1409 9.08037 24.8127 9.08037C25.4845 9.08037 26.0443 8.52871 26.0443 7.86672C26.0443 7.20473 25.5125 6.65308 24.8127 6.65308Z" fill="#2D364F"/>
<path d="M24.8125 1.66054C28.3114 1.66054 31.1386 4.44642 31.1386 7.89428C31.1386 11.3421 28.3114 14.128 24.8125 14.128C21.3136 14.128 18.4865 11.3146 18.4865 7.89428C18.4865 4.474 21.3416 1.66054 24.8125 1.66054ZM24.8125 0.419312C20.6418 0.419312 17.2549 3.75684 17.2549 7.8667C17.2549 11.9765 20.6418 15.3141 24.8125 15.3141C28.9832 15.3141 32.3702 11.9765 32.3702 7.8667C32.3702 3.75684 29.0112 0.419312 24.8125 0.419312Z" fill="#2D364F"/>
</svg>
