<svg width="17" height="17" viewBox="0 0 17 17" fill="none" xmlns="http://www.w3.org/2000/svg">
<g clip-path="url(#clip0_1682_2966)">
<path d="M15.7692 4.11492C15.1916 3.42837 14.1253 3.14832 12.0889 3.14832H4.69662C2.61357 3.14832 1.52918 3.44643 0.953803 4.17737C0.392822 4.89004 0.392822 5.94011 0.392822 7.39342V10.1634C0.392822 12.979 1.05842 14.4085 4.69662 14.4085H12.0889C13.8549 14.4085 14.8335 14.1614 15.4666 13.5555C16.1158 12.9342 16.3928 11.9197 16.3928 10.1634V7.39342C16.3928 5.86078 16.3494 4.80452 15.7692 4.11492ZM10.6649 9.16086L7.30807 10.9152C7.23303 10.9545 7.15096 10.9739 7.069 10.9739C6.9762 10.9739 6.88361 10.9489 6.8016 10.8993C6.64717 10.8057 6.55287 10.6383 6.55287 10.4578V6.96029C6.55287 6.78006 6.64691 6.61283 6.80103 6.51921C6.9552 6.42558 7.14694 6.41918 7.30689 6.50228L10.6637 8.24535C10.8345 8.33402 10.9417 8.51033 10.942 8.70269C10.9422 8.89521 10.8354 9.07177 10.6649 9.16086Z" fill="#2D364F"/>
</g>
<defs>
<clipPath id="clip0_1682_2966">
<rect width="16" height="16" fill="white" transform="translate(0.392822 0.778442)"/>
</clipPath>
</defs>
</svg>
