<svg width="1440" height="173" viewBox="0 0 1440 173" fill="none" xmlns="http://www.w3.org/2000/svg">
<g opacity="0.4">
<g clip-path="url(#clip0_10710_38067)">
<path d="M107.628 -9L102.534 -5.42327L107.628 -8.99929C111.147 -5.05323 115.526 -0.142074 115.526 9.14775C115.526 18.4376 111.147 23.3491 107.629 27.2955C104.672 30.6124 102.536 33.0086 102.536 38.2891C102.536 43.5692 104.672 45.9651 107.629 49.2819C111.147 53.228 115.526 58.1392 115.526 67.4286C115.526 76.7188 111.147 81.6292 107.629 85.5757C104.672 88.8925 102.536 91.2887 102.536 96.5692C102.536 101.85 104.672 104.246 107.629 107.562C111.147 111.509 115.526 116.42 115.526 125.71C115.526 135 111.147 139.912 107.629 143.858C104.672 147.175 102.536 149.572 102.536 154.853C102.536 160.135 104.672 162.531 107.628 165.848L97.4409 173C93.9234 169.054 89.5461 164.144 89.5461 154.853C89.5461 145.562 93.9242 140.651 97.4425 136.705C100.399 133.387 102.536 130.991 102.536 125.709C102.536 120.429 100.399 118.032 97.4421 114.716C93.9238 110.77 89.5457 105.858 89.5457 96.5689C89.5457 87.2787 93.9238 82.3679 97.4421 78.4219C100.399 75.105 102.536 72.7088 102.536 67.4283C102.536 62.1478 100.399 59.7519 97.4421 56.435C93.9238 52.489 89.5457 47.5782 89.5457 38.2887C89.5457 28.9985 93.9238 24.0877 97.4421 20.1417C100.399 16.8252 102.536 14.4289 102.536 9.1481C102.536 3.86761 100.399 1.4714 97.4417 -1.84548L107.628 -9Z" fill="#906AF1"/>
<path d="M43.7776 -9L38.6844 -5.42327L43.7784 -8.99929C47.297 -5.05323 51.6752 -0.142074 51.6752 9.14775C51.6752 18.4376 47.2966 23.3491 43.7784 27.2955C40.8217 30.6124 38.6852 33.0086 38.6852 38.2891C38.6852 43.5692 40.8217 45.9651 43.7784 49.2819C47.2966 53.228 51.6752 58.1392 51.6752 67.4286C51.6752 76.7188 47.297 81.6292 43.7788 85.5757C40.8217 88.8925 38.6852 91.2888 38.6852 96.5693C38.6852 101.85 40.8209 104.245 43.7764 107.56L33.5889 114.713C30.0719 110.769 25.6953 105.859 25.6953 96.5696C25.6953 87.2794 30.0735 82.369 33.5917 78.4226C36.5488 75.1057 38.6852 72.7095 38.6852 67.429C38.6852 62.1485 36.5484 59.7526 33.5917 56.4358C30.0735 52.4897 25.6953 47.5789 25.6953 38.2894C25.6953 29 30.0735 24.0885 33.5917 20.1424C36.5488 16.8255 38.6852 14.4293 38.6852 9.14846C38.6852 3.86797 36.5484 1.47176 33.5913 -1.84512L43.7776 -9Z" fill="#E35F3C"/>
<path d="M171.477 -9L166.384 -5.42327L171.478 -8.99929C174.996 -5.05323 179.374 -0.142074 179.374 9.14775C179.374 18.4376 174.996 23.3491 171.478 27.2955C168.521 30.6124 166.384 33.0086 166.384 38.2891C166.384 43.5692 168.521 45.9651 171.478 49.2819C174.996 53.228 179.374 58.1392 179.374 67.4286C179.374 76.7188 174.996 81.6292 171.478 85.5757C168.521 88.8925 166.384 91.2888 166.384 96.5693C166.384 101.85 168.52 104.245 171.476 107.56L161.288 114.713C157.771 110.769 153.395 105.859 153.395 96.5696C153.395 87.2794 157.773 82.369 161.291 78.4226C164.248 75.1057 166.384 72.7095 166.384 67.429C166.384 62.1485 164.248 59.7526 161.291 56.4358C157.773 52.4897 153.395 47.5789 153.395 38.2894C153.395 29 157.773 24.0885 161.291 20.1424C164.248 16.8255 166.384 14.4293 166.384 9.14846C166.384 3.86797 164.248 1.47176 161.291 -1.84512L171.477 -9Z" fill="#E35F3C"/>
<path d="M13.2549 73.4276C16.9886 73.4276 20.0154 70.7414 20.0154 67.4277C20.0154 64.114 16.9886 61.4277 13.2549 61.4277C9.52117 61.4277 6.49438 64.114 6.49438 67.4277C6.49438 70.7414 9.52117 73.4276 13.2549 73.4276Z" fill="#FACD34"/>
<path d="M6.76051 160.852C10.4942 160.852 13.521 158.166 13.521 154.852C13.521 151.538 10.4942 148.852 6.76051 148.852C3.02679 148.852 0 151.538 0 154.852C0 158.166 3.02679 160.852 6.76051 160.852Z" fill="#64C3A5"/>
<path d="M70.6118 131.712C74.3456 131.712 77.3723 129.026 77.3723 125.712C77.3723 122.398 74.3456 119.712 70.6118 119.712C66.8781 119.712 63.8513 122.398 63.8513 125.712C63.8513 129.026 66.8781 131.712 70.6118 131.712Z" fill="#FACD34"/>
<path d="M64.1174 44.288C67.8512 44.288 70.878 41.6017 70.878 38.288C70.878 34.9744 67.8512 32.2881 64.1174 32.2881C60.3837 32.2881 57.3569 34.9744 57.3569 38.288C57.3569 41.6017 60.3837 44.288 64.1174 44.288Z" fill="#64C3A5"/>
<path d="M77.106 15.1479C80.8397 15.1479 83.8665 12.4616 83.8665 9.14791C83.8665 5.83422 80.8397 3.14795 77.106 3.14795C73.3722 3.14795 70.3455 5.83422 70.3455 9.14791C70.3455 12.4616 73.3722 15.1479 77.106 15.1479Z" fill="#FACD34"/>
<path d="M127.964 102.66C131.698 102.66 134.725 99.9738 134.725 96.6601C134.725 93.3464 131.698 90.6602 127.964 90.6602C124.231 90.6602 121.204 93.3464 121.204 96.6601C121.204 99.9738 124.231 102.66 127.964 102.66Z" fill="#64C3A5"/>
<path d="M127.964 160.852C131.698 160.852 134.725 158.165 134.725 154.852C134.725 151.538 131.698 148.852 127.964 148.852C124.231 148.852 121.204 151.538 121.204 154.852C121.204 158.165 124.231 160.852 127.964 160.852Z" fill="#FACD34"/>
<path d="M140.954 73.4276C144.688 73.4276 147.715 70.7414 147.715 67.4277C147.715 64.114 144.688 61.4277 140.954 61.4277C137.22 61.4277 134.194 64.114 134.194 67.4277C134.194 70.7414 137.22 73.4276 140.954 73.4276Z" fill="#FACD34"/>
<path d="M185.32 160.852C189.054 160.852 192.081 158.166 192.081 154.852C192.081 151.538 189.054 148.852 185.32 148.852C181.586 148.852 178.56 151.538 178.56 154.852C178.56 158.166 181.586 160.852 185.32 160.852Z" fill="#64C3A5"/>
<path d="M198.31 131.712C202.044 131.712 205.07 129.026 205.07 125.712C205.07 122.398 202.044 119.712 198.31 119.712C194.576 119.712 191.549 122.398 191.549 125.712C191.549 129.026 194.576 131.712 198.31 131.712Z" fill="#FACD34"/>
<path d="M191.815 44.288C195.549 44.288 198.576 41.6017 198.576 38.288C198.576 34.9744 195.549 32.2881 191.815 32.2881C188.082 32.2881 185.055 34.9744 185.055 38.288C185.055 41.6017 188.082 44.288 191.815 44.288Z" fill="#64C3A5"/>
</g>
<g clip-path="url(#clip1_10710_38067)">
<path d="M312.698 -9L307.605 -5.42327L312.699 -8.99929C316.217 -5.05323 320.596 -0.142074 320.596 9.14775C320.596 18.4376 316.218 23.3491 312.699 27.2955C309.742 30.6124 307.606 33.0086 307.606 38.2891C307.606 43.5692 309.742 45.9651 312.699 49.2819C316.217 53.228 320.596 58.1392 320.596 67.4286C320.596 76.7188 316.218 81.6292 312.699 85.5757C309.742 88.8925 307.606 91.2887 307.606 96.5692C307.606 101.85 309.742 104.246 312.699 107.562C316.218 111.509 320.596 116.42 320.596 125.71C320.596 135 316.218 139.912 312.699 143.858C309.742 147.175 307.606 149.572 307.606 154.853C307.606 160.135 309.742 162.531 312.698 165.848L302.511 173C298.994 169.054 294.616 164.144 294.616 154.853C294.616 145.562 298.995 140.651 302.513 136.705C305.469 133.387 307.606 130.991 307.606 125.709C307.606 120.429 305.469 118.032 302.512 114.716C298.994 110.77 294.616 105.858 294.616 96.5689C294.616 87.2787 298.994 82.3679 302.512 78.4219C305.469 75.105 307.606 72.7088 307.606 67.4283C307.606 62.1478 305.469 59.7519 302.512 56.435C298.994 52.489 294.616 47.5782 294.616 38.2887C294.616 28.9985 298.994 24.0877 302.512 20.1417C305.469 16.8252 307.606 14.4289 307.606 9.1481C307.606 3.86761 305.469 1.4714 302.512 -1.84548L312.698 -9Z" fill="#906AF1"/>
<path d="M248.848 -9L243.755 -5.42327L248.849 -8.99929C252.367 -5.05323 256.745 -0.142074 256.745 9.14775C256.745 18.4376 252.367 23.3491 248.849 27.2955C245.892 30.6124 243.756 33.0086 243.756 38.2891C243.756 43.5692 245.892 45.9651 248.849 49.2819C252.367 53.228 256.745 58.1392 256.745 67.4286C256.745 76.7188 252.367 81.6292 248.849 85.5757C245.892 88.8925 243.756 91.2888 243.756 96.5693C243.756 101.85 245.891 104.245 248.847 107.56L238.659 114.713C235.142 110.769 230.766 105.859 230.766 96.5696C230.766 87.2794 235.144 82.369 238.662 78.4226C241.619 75.1057 243.756 72.7095 243.756 67.429C243.756 62.1485 241.619 59.7526 238.662 56.4358C235.144 52.4897 230.766 47.5789 230.766 38.2894C230.766 29 235.144 24.0885 238.662 20.1424C241.619 16.8255 243.756 14.4293 243.756 9.14846C243.756 3.86797 241.619 1.47176 238.662 -1.84512L248.848 -9Z" fill="#E35F3C"/>
<path d="M376.547 -9L371.454 -5.42327L376.548 -8.99929C380.067 -5.05323 384.445 -0.142074 384.445 9.14775C384.445 18.4376 380.066 23.3491 376.548 27.2955C373.591 30.6124 371.455 33.0086 371.455 38.2891C371.455 43.5692 373.591 45.9651 376.548 49.2819C380.066 53.228 384.445 58.1392 384.445 67.4286C384.445 76.7188 380.067 81.6292 376.548 85.5757C373.591 88.8925 371.455 91.2888 371.455 96.5693C371.455 101.85 373.59 104.245 376.546 107.56L366.358 114.713C362.841 110.769 358.465 105.859 358.465 96.5696C358.465 87.2794 362.843 82.369 366.361 78.4226C369.318 75.1057 371.455 72.7095 371.455 67.429C371.455 62.1485 369.318 59.7526 366.361 56.4358C362.843 52.4897 358.465 47.5789 358.465 38.2894C358.465 29 362.843 24.0885 366.361 20.1424C369.318 16.8255 371.455 14.4293 371.455 9.14846C371.455 3.86797 369.318 1.47176 366.361 -1.84512L376.547 -9Z" fill="#E35F3C"/>
<path d="M218.325 73.4276C222.059 73.4276 225.086 70.7414 225.086 67.4277C225.086 64.114 222.059 61.4277 218.325 61.4277C214.591 61.4277 211.565 64.114 211.565 67.4277C211.565 70.7414 214.591 73.4276 218.325 73.4276Z" fill="#FACD34"/>
<path d="M211.831 160.852C215.565 160.852 218.591 158.166 218.591 154.852C218.591 151.538 215.565 148.852 211.831 148.852C208.097 148.852 205.07 151.538 205.07 154.852C205.07 158.166 208.097 160.852 211.831 160.852Z" fill="#64C3A5"/>
<path d="M275.682 131.712C279.416 131.712 282.443 129.026 282.443 125.712C282.443 122.398 279.416 119.712 275.682 119.712C271.948 119.712 268.922 122.398 268.922 125.712C268.922 129.026 271.948 131.712 275.682 131.712Z" fill="#FACD34"/>
<path d="M269.188 44.288C272.921 44.288 275.948 41.6017 275.948 38.288C275.948 34.9744 272.921 32.2881 269.188 32.2881C265.454 32.2881 262.427 34.9744 262.427 38.288C262.427 41.6017 265.454 44.288 269.188 44.288Z" fill="#64C3A5"/>
<path d="M282.176 15.1479C285.91 15.1479 288.937 12.4616 288.937 9.14791C288.937 5.83422 285.91 3.14795 282.176 3.14795C278.443 3.14795 275.416 5.83422 275.416 9.14791C275.416 12.4616 278.443 15.1479 282.176 15.1479Z" fill="#FACD34"/>
<path d="M333.035 102.66C336.768 102.66 339.795 99.9738 339.795 96.6601C339.795 93.3464 336.768 90.6602 333.035 90.6602C329.301 90.6602 326.274 93.3464 326.274 96.6601C326.274 99.9738 329.301 102.66 333.035 102.66Z" fill="#64C3A5"/>
<path d="M333.035 160.852C336.768 160.852 339.795 158.165 339.795 154.852C339.795 151.538 336.768 148.852 333.035 148.852C329.301 148.852 326.274 151.538 326.274 154.852C326.274 158.165 329.301 160.852 333.035 160.852Z" fill="#FACD34"/>
<path d="M346.024 73.4276C349.758 73.4276 352.785 70.7414 352.785 67.4277C352.785 64.114 349.758 61.4277 346.024 61.4277C342.291 61.4277 339.264 64.114 339.264 67.4277C339.264 70.7414 342.291 73.4276 346.024 73.4276Z" fill="#FACD34"/>
<path d="M390.39 160.852C394.124 160.852 397.151 158.166 397.151 154.852C397.151 151.538 394.124 148.852 390.39 148.852C386.657 148.852 383.63 151.538 383.63 154.852C383.63 158.166 386.657 160.852 390.39 160.852Z" fill="#64C3A5"/>
<path d="M403.38 131.712C407.114 131.712 410.141 129.026 410.141 125.712C410.141 122.398 407.114 119.712 403.38 119.712C399.646 119.712 396.62 122.398 396.62 125.712C396.62 129.026 399.646 131.712 403.38 131.712Z" fill="#FACD34"/>
<path d="M396.886 44.288C400.619 44.288 403.646 41.6017 403.646 38.288C403.646 34.9744 400.619 32.2881 396.886 32.2881C393.152 32.2881 390.125 34.9744 390.125 38.288C390.125 41.6017 393.152 44.288 396.886 44.288Z" fill="#64C3A5"/>
</g>
<g clip-path="url(#clip2_10710_38067)">
<path d="M520.022 -9L514.929 -5.42327L520.023 -8.99929C523.541 -5.05323 527.92 -0.142074 527.92 9.14775C527.92 18.4376 523.542 23.3491 520.023 27.2955C517.066 30.6124 514.93 33.0086 514.93 38.2891C514.93 43.5692 517.066 45.9651 520.023 49.2819C523.541 53.228 527.92 58.1392 527.92 67.4286C527.92 76.7188 523.542 81.6292 520.023 85.5757C517.066 88.8925 514.93 91.2887 514.93 96.5692C514.93 101.85 517.066 104.246 520.023 107.562C523.542 111.509 527.92 116.42 527.92 125.71C527.92 135 523.542 139.912 520.023 143.858C517.066 147.175 514.93 149.572 514.93 154.853C514.93 160.135 517.066 162.531 520.022 165.848L509.835 173C506.318 169.054 501.94 164.144 501.94 154.853C501.94 145.562 506.319 140.651 509.837 136.705C512.793 133.387 514.93 130.991 514.93 125.709C514.93 120.429 512.793 118.032 509.836 114.716C506.318 110.77 501.94 105.858 501.94 96.5689C501.94 87.2787 506.318 82.3679 509.836 78.4219C512.793 75.105 514.93 72.7088 514.93 67.4283C514.93 62.1478 512.793 59.7519 509.836 56.435C506.318 52.489 501.94 47.5782 501.94 38.2887C501.94 28.9985 506.318 24.0877 509.836 20.1417C512.793 16.8252 514.93 14.4289 514.93 9.1481C514.93 3.86761 512.793 1.4714 509.836 -1.84548L520.022 -9Z" fill="#906AF1"/>
<path d="M456.172 -9L451.079 -5.42327L456.173 -8.99929C459.691 -5.05323 464.069 -0.142074 464.069 9.14775C464.069 18.4376 459.691 23.3491 456.173 27.2955C453.216 30.6124 451.08 33.0086 451.08 38.2891C451.08 43.5692 453.216 45.9651 456.173 49.2819C459.691 53.228 464.069 58.1392 464.069 67.4286C464.069 76.7188 459.691 81.6292 456.173 85.5757C453.216 88.8925 451.08 91.2888 451.08 96.5693C451.08 101.85 453.215 104.245 456.171 107.56L445.983 114.713C442.466 110.769 438.09 105.859 438.09 96.5696C438.09 87.2794 442.468 82.369 445.986 78.4226C448.943 75.1057 451.08 72.7095 451.08 67.429C451.08 62.1485 448.943 59.7526 445.986 56.4358C442.468 52.4897 438.09 47.5789 438.09 38.2894C438.09 29 442.468 24.0885 445.986 20.1424C448.943 16.8255 451.08 14.4293 451.08 9.14846C451.08 3.86797 448.943 1.47176 445.986 -1.84512L456.172 -9Z" fill="#E35F3C"/>
<path d="M583.871 -9L578.778 -5.42327L583.872 -8.99929C587.391 -5.05323 591.769 -0.142074 591.769 9.14775C591.769 18.4376 587.39 23.3491 583.872 27.2955C580.915 30.6124 578.779 33.0086 578.779 38.2891C578.779 43.5692 580.915 45.9651 583.872 49.2819C587.39 53.228 591.769 58.1392 591.769 67.4286C591.769 76.7188 587.391 81.6292 583.872 85.5757C580.915 88.8925 578.779 91.2888 578.779 96.5693C578.779 101.85 580.914 104.245 583.87 107.56L573.682 114.713C570.165 110.769 565.789 105.859 565.789 96.5696C565.789 87.2794 570.167 82.369 573.685 78.4226C576.642 75.1057 578.779 72.7095 578.779 67.429C578.779 62.1485 576.642 59.7526 573.685 56.4358C570.167 52.4897 565.789 47.5789 565.789 38.2894C565.789 29 570.167 24.0885 573.685 20.1424C576.642 16.8255 578.779 14.4293 578.779 9.14846C578.779 3.86797 576.642 1.47176 573.685 -1.84512L583.871 -9Z" fill="#E35F3C"/>
<path d="M425.649 73.4276C429.383 73.4276 432.41 70.7414 432.41 67.4277C432.41 64.114 429.383 61.4277 425.649 61.4277C421.915 61.4277 418.889 64.114 418.889 67.4277C418.889 70.7414 421.915 73.4276 425.649 73.4276Z" fill="#FACD34"/>
<path d="M419.155 160.852C422.889 160.852 425.915 158.166 425.915 154.852C425.915 151.538 422.889 148.852 419.155 148.852C415.421 148.852 412.394 151.538 412.394 154.852C412.394 158.166 415.421 160.852 419.155 160.852Z" fill="#64C3A5"/>
<path d="M483.006 131.712C486.74 131.712 489.767 129.026 489.767 125.712C489.767 122.398 486.74 119.712 483.006 119.712C479.272 119.712 476.246 122.398 476.246 125.712C476.246 129.026 479.272 131.712 483.006 131.712Z" fill="#FACD34"/>
<path d="M476.512 44.288C480.245 44.288 483.272 41.6017 483.272 38.288C483.272 34.9744 480.245 32.2881 476.512 32.2881C472.778 32.2881 469.751 34.9744 469.751 38.288C469.751 41.6017 472.778 44.288 476.512 44.288Z" fill="#64C3A5"/>
<path d="M489.5 15.1479C493.234 15.1479 496.261 12.4616 496.261 9.14791C496.261 5.83422 493.234 3.14795 489.5 3.14795C485.767 3.14795 482.74 5.83422 482.74 9.14791C482.74 12.4616 485.767 15.1479 489.5 15.1479Z" fill="#FACD34"/>
<path d="M540.359 102.66C544.092 102.66 547.119 99.9738 547.119 96.6601C547.119 93.3464 544.092 90.6602 540.359 90.6602C536.625 90.6602 533.598 93.3464 533.598 96.6601C533.598 99.9738 536.625 102.66 540.359 102.66Z" fill="#64C3A5"/>
<path d="M540.359 160.852C544.092 160.852 547.119 158.165 547.119 154.852C547.119 151.538 544.092 148.852 540.359 148.852C536.625 148.852 533.598 151.538 533.598 154.852C533.598 158.165 536.625 160.852 540.359 160.852Z" fill="#FACD34"/>
<path d="M553.348 73.4276C557.082 73.4276 560.109 70.7414 560.109 67.4277C560.109 64.114 557.082 61.4277 553.348 61.4277C549.615 61.4277 546.588 64.114 546.588 67.4277C546.588 70.7414 549.615 73.4276 553.348 73.4276Z" fill="#FACD34"/>
<path d="M597.714 160.852C601.448 160.852 604.475 158.166 604.475 154.852C604.475 151.538 601.448 148.852 597.714 148.852C593.981 148.852 590.954 151.538 590.954 154.852C590.954 158.166 593.981 160.852 597.714 160.852Z" fill="#64C3A5"/>
<path d="M610.704 131.712C614.438 131.712 617.465 129.026 617.465 125.712C617.465 122.398 614.438 119.712 610.704 119.712C606.97 119.712 603.944 122.398 603.944 125.712C603.944 129.026 606.97 131.712 610.704 131.712Z" fill="#FACD34"/>
<path d="M604.21 44.288C607.943 44.288 610.97 41.6017 610.97 38.288C610.97 34.9744 607.943 32.2881 604.21 32.2881C600.476 32.2881 597.449 34.9744 597.449 38.288C597.449 41.6017 600.476 44.288 604.21 44.288Z" fill="#64C3A5"/>
</g>
<g clip-path="url(#clip3_10710_38067)">
<path d="M725.092 -9L719.999 -5.42327L725.093 -8.99929C728.612 -5.05323 732.99 -0.142074 732.99 9.14775C732.99 18.4376 728.612 23.3491 725.094 27.2955C722.137 30.6124 720 33.0086 720 38.2891C720 43.5692 722.137 45.9651 725.094 49.2819C728.612 53.228 732.99 58.1392 732.99 67.4286C732.99 76.7188 728.612 81.6292 725.094 85.5757C722.137 88.8925 720 91.2887 720 96.5692C720 101.85 722.137 104.246 725.094 107.562C728.612 111.509 732.99 116.42 732.99 125.71C732.99 135 728.612 139.912 725.094 143.858C722.137 147.175 720 149.572 720 154.853C720 160.135 722.136 162.531 725.093 165.848L714.906 173C711.388 169.054 707.011 164.144 707.011 154.853C707.011 145.562 711.389 140.651 714.907 136.705C717.864 133.387 720 130.991 720 125.709C720 120.429 717.864 118.032 714.907 114.716C711.389 110.77 707.01 105.858 707.01 96.5689C707.01 87.2787 711.389 82.3679 714.907 78.4219C717.864 75.105 720 72.7088 720 67.4283C720 62.1478 717.864 59.7519 714.907 56.435C711.389 52.489 707.01 47.5782 707.01 38.2887C707.01 28.9985 711.389 24.0877 714.907 20.1417C717.864 16.8252 720 14.4289 720 9.1481C720 3.86761 717.864 1.4714 714.907 -1.84548L725.092 -9Z" fill="#906AF1"/>
<path d="M661.242 -9L656.149 -5.42327L661.243 -8.99929C664.762 -5.05323 669.14 -0.142074 669.14 9.14775C669.14 18.4376 664.761 23.3491 661.243 27.2955C658.287 30.6124 656.15 33.0086 656.15 38.2891C656.15 43.5692 658.287 45.9651 661.243 49.2819C664.761 53.228 669.14 58.1392 669.14 67.4286C669.14 76.7188 664.762 81.6292 661.244 85.5757C658.287 88.8925 656.15 91.2888 656.15 96.5693C656.15 101.85 658.286 104.245 661.241 107.56L651.054 114.713C647.537 110.769 643.16 105.859 643.16 96.5696C643.16 87.2794 647.538 82.369 651.057 78.4226C654.014 75.1057 656.15 72.7095 656.15 67.429C656.15 62.1485 654.013 59.7526 651.057 56.4358C647.538 52.4897 643.16 47.5789 643.16 38.2894C643.16 29 647.538 24.0885 651.057 20.1424C654.014 16.8255 656.15 14.4293 656.15 9.14846C656.15 3.86797 654.013 1.47176 651.056 -1.84512L661.242 -9Z" fill="#E35F3C"/>
<path d="M788.942 -9L783.849 -5.42327L788.942 -8.99929C792.461 -5.05323 796.839 -0.142074 796.839 9.14775C796.839 18.4376 792.461 23.3491 788.942 27.2955C785.986 30.6124 783.849 33.0086 783.849 38.2891C783.849 43.5692 785.986 45.9651 788.942 49.2819C792.461 53.228 796.839 58.1392 796.839 67.4286C796.839 76.7188 792.461 81.6292 788.943 85.5757C785.986 88.8925 783.849 91.2888 783.849 96.5693C783.849 101.85 785.985 104.245 788.94 107.56L778.753 114.713C775.236 110.769 770.859 105.859 770.859 96.5696C770.859 87.2794 775.238 82.369 778.756 78.4226C781.713 75.1057 783.849 72.7095 783.849 67.429C783.849 62.1485 781.712 59.7526 778.756 56.4358C775.238 52.4897 770.859 47.5789 770.859 38.2894C770.859 29 775.238 24.0885 778.756 20.1424C781.713 16.8255 783.849 14.4293 783.849 9.14846C783.849 3.86797 781.712 1.47176 778.755 -1.84512L788.942 -9Z" fill="#E35F3C"/>
<path d="M630.72 73.4276C634.453 73.4276 637.48 70.7414 637.48 67.4277C637.48 64.114 634.453 61.4277 630.72 61.4277C626.986 61.4277 623.959 64.114 623.959 67.4277C623.959 70.7414 626.986 73.4276 630.72 73.4276Z" fill="#FACD34"/>
<path d="M624.225 160.852C627.959 160.852 630.986 158.166 630.986 154.852C630.986 151.538 627.959 148.852 624.225 148.852C620.492 148.852 617.465 151.538 617.465 154.852C617.465 158.166 620.492 160.852 624.225 160.852Z" fill="#64C3A5"/>
<path d="M688.077 131.712C691.81 131.712 694.837 129.026 694.837 125.712C694.837 122.398 691.81 119.712 688.077 119.712C684.343 119.712 681.316 122.398 681.316 125.712C681.316 129.026 684.343 131.712 688.077 131.712Z" fill="#FACD34"/>
<path d="M681.582 44.288C685.316 44.288 688.343 41.6017 688.343 38.288C688.343 34.9744 685.316 32.2881 681.582 32.2881C677.849 32.2881 674.822 34.9744 674.822 38.288C674.822 41.6017 677.849 44.288 681.582 44.288Z" fill="#64C3A5"/>
<path d="M694.571 15.1479C698.305 15.1479 701.331 12.4616 701.331 9.14791C701.331 5.83422 698.305 3.14795 694.571 3.14795C690.837 3.14795 687.81 5.83422 687.81 9.14791C687.81 12.4616 690.837 15.1479 694.571 15.1479Z" fill="#FACD34"/>
<path d="M745.429 102.66C749.163 102.66 752.19 99.9738 752.19 96.6601C752.19 93.3464 749.163 90.6602 745.429 90.6602C741.695 90.6602 738.669 93.3464 738.669 96.6601C738.669 99.9738 741.695 102.66 745.429 102.66Z" fill="#64C3A5"/>
<path d="M745.429 160.852C749.163 160.852 752.19 158.165 752.19 154.852C752.19 151.538 749.163 148.852 745.429 148.852C741.695 148.852 738.669 151.538 738.669 154.852C738.669 158.165 741.695 160.852 745.429 160.852Z" fill="#FACD34"/>
<path d="M758.419 73.4276C762.153 73.4276 765.179 70.7414 765.179 67.4277C765.179 64.114 762.153 61.4277 758.419 61.4277C754.685 61.4277 751.658 64.114 751.658 67.4277C751.658 70.7414 754.685 73.4276 758.419 73.4276Z" fill="#FACD34"/>
<path d="M802.785 160.852C806.519 160.852 809.545 158.166 809.545 154.852C809.545 151.538 806.519 148.852 802.785 148.852C799.051 148.852 796.024 151.538 796.024 154.852C796.024 158.166 799.051 160.852 802.785 160.852Z" fill="#64C3A5"/>
<path d="M815.775 131.712C819.508 131.712 822.535 129.026 822.535 125.712C822.535 122.398 819.508 119.712 815.775 119.712C812.041 119.712 809.014 122.398 809.014 125.712C809.014 129.026 812.041 131.712 815.775 131.712Z" fill="#FACD34"/>
<path d="M809.28 44.288C813.014 44.288 816.041 41.6017 816.041 38.288C816.041 34.9744 813.014 32.2881 809.28 32.2881C805.547 32.2881 802.52 34.9744 802.52 38.288C802.52 41.6017 805.547 44.288 809.28 44.288Z" fill="#64C3A5"/>
</g>
<g clip-path="url(#clip4_10710_38067)">
<path d="M930.163 -9L925.07 -5.42327L930.163 -8.99929C933.682 -5.05323 938.061 -0.142074 938.061 9.14775C938.061 18.4376 933.683 23.3491 930.164 27.2955C927.207 30.6124 925.071 33.0086 925.071 38.2891C925.071 43.5692 927.207 45.9651 930.164 49.2819C933.682 53.228 938.061 58.1392 938.061 67.4286C938.061 76.7188 933.683 81.6292 930.164 85.5757C927.207 88.8925 925.071 91.2887 925.071 96.5692C925.071 101.85 927.207 104.246 930.164 107.562C933.683 111.509 938.061 116.42 938.061 125.71C938.061 135 933.683 139.912 930.164 143.858C927.207 147.175 925.071 149.572 925.071 154.853C925.071 160.135 927.207 162.531 930.163 165.848L919.976 173C916.459 169.054 912.081 164.144 912.081 154.853C912.081 145.562 916.459 140.651 919.978 136.705C922.934 133.387 925.071 130.991 925.071 125.709C925.071 120.429 922.934 118.032 919.977 114.716C916.459 110.77 912.081 105.858 912.081 96.5689C912.081 87.2787 916.459 82.3679 919.977 78.4219C922.934 75.105 925.071 72.7088 925.071 67.4283C925.071 62.1478 922.934 59.7519 919.977 56.435C916.459 52.489 912.081 47.5782 912.081 38.2887C912.081 28.9985 916.459 24.0877 919.977 20.1417C922.934 16.8252 925.071 14.4289 925.071 9.1481C925.071 3.86761 922.934 1.4714 919.977 -1.84548L930.163 -9Z" fill="#906AF1"/>
<path d="M866.313 -9L861.22 -5.42327L866.314 -8.99929C869.832 -5.05323 874.21 -0.142074 874.21 9.14775C874.21 18.4376 869.832 23.3491 866.314 27.2955C863.357 30.6124 861.22 33.0086 861.22 38.2891C861.22 43.5692 863.357 45.9651 866.314 49.2819C869.832 53.228 874.21 58.1392 874.21 67.4286C874.21 76.7188 869.832 81.6292 866.314 85.5757C863.357 88.8925 861.22 91.2888 861.22 96.5693C861.22 101.85 863.356 104.245 866.312 107.56L856.124 114.713C852.607 110.769 848.23 105.859 848.23 96.5696C848.23 87.2794 852.609 82.369 856.127 78.4226C859.084 75.1057 861.22 72.7095 861.22 67.429C861.22 62.1485 859.084 59.7526 856.127 56.4358C852.609 52.4897 848.23 47.5789 848.23 38.2894C848.23 29 852.609 24.0885 856.127 20.1424C859.084 16.8255 861.22 14.4293 861.22 9.14846C861.22 3.86797 859.084 1.47176 856.126 -1.84512L866.313 -9Z" fill="#E35F3C"/>
<path d="M994.012 -9L988.919 -5.42327L994.013 -8.99929C997.531 -5.05323 1001.91 -0.142074 1001.91 9.14775C1001.91 18.4376 997.531 23.3491 994.013 27.2955C991.056 30.6124 988.92 33.0086 988.92 38.2891C988.92 43.5692 991.056 45.9651 994.013 49.2819C997.531 53.228 1001.91 58.1392 1001.91 67.4286C1001.91 76.7188 997.531 81.6292 994.013 85.5757C991.056 88.8925 988.92 91.2888 988.92 96.5693C988.92 101.85 991.055 104.245 994.011 107.56L983.823 114.713C980.306 110.769 975.93 105.859 975.93 96.5696C975.93 87.2794 980.308 82.369 983.826 78.4226C986.783 75.1057 988.92 72.7095 988.92 67.429C988.92 62.1485 986.783 59.7526 983.826 56.4358C980.308 52.4897 975.93 47.5789 975.93 38.2894C975.93 29 980.308 24.0885 983.826 20.1424C986.783 16.8255 988.92 14.4293 988.92 9.14846C988.92 3.86797 986.783 1.47176 983.826 -1.84512L994.012 -9Z" fill="#E35F3C"/>
<path d="M835.79 73.4276C839.524 73.4276 842.551 70.7414 842.551 67.4277C842.551 64.114 839.524 61.4277 835.79 61.4277C832.056 61.4277 829.03 64.114 829.03 67.4277C829.03 70.7414 832.056 73.4276 835.79 73.4276Z" fill="#FACD34"/>
<path d="M829.296 160.852C833.029 160.852 836.056 158.166 836.056 154.852C836.056 151.538 833.029 148.852 829.296 148.852C825.562 148.852 822.535 151.538 822.535 154.852C822.535 158.166 825.562 160.852 829.296 160.852Z" fill="#64C3A5"/>
<path d="M893.147 131.712C896.881 131.712 899.908 129.026 899.908 125.712C899.908 122.398 896.881 119.712 893.147 119.712C889.413 119.712 886.386 122.398 886.386 125.712C886.386 129.026 889.413 131.712 893.147 131.712Z" fill="#FACD34"/>
<path d="M886.653 44.288C890.386 44.288 893.413 41.6017 893.413 38.288C893.413 34.9744 890.386 32.2881 886.653 32.2881C882.919 32.2881 879.892 34.9744 879.892 38.288C879.892 41.6017 882.919 44.288 886.653 44.288Z" fill="#64C3A5"/>
<path d="M899.641 15.1479C903.375 15.1479 906.402 12.4616 906.402 9.14791C906.402 5.83422 903.375 3.14795 899.641 3.14795C895.907 3.14795 892.881 5.83422 892.881 9.14791C892.881 12.4616 895.907 15.1479 899.641 15.1479Z" fill="#FACD34"/>
<path d="M950.5 102.66C954.233 102.66 957.26 99.9738 957.26 96.6601C957.26 93.3464 954.233 90.6602 950.5 90.6602C946.766 90.6602 943.739 93.3464 943.739 96.6601C943.739 99.9738 946.766 102.66 950.5 102.66Z" fill="#64C3A5"/>
<path d="M950.5 160.852C954.233 160.852 957.26 158.165 957.26 154.852C957.26 151.538 954.233 148.852 950.5 148.852C946.766 148.852 943.739 151.538 943.739 154.852C943.739 158.165 946.766 160.852 950.5 160.852Z" fill="#FACD34"/>
<path d="M963.489 73.4276C967.223 73.4276 970.25 70.7414 970.25 67.4277C970.25 64.114 967.223 61.4277 963.489 61.4277C959.756 61.4277 956.729 64.114 956.729 67.4277C956.729 70.7414 959.756 73.4276 963.489 73.4276Z" fill="#FACD34"/>
<path d="M1007.86 160.852C1011.59 160.852 1014.62 158.166 1014.62 154.852C1014.62 151.538 1011.59 148.852 1007.86 148.852C1004.12 148.852 1001.09 151.538 1001.09 154.852C1001.09 158.166 1004.12 160.852 1007.86 160.852Z" fill="#64C3A5"/>
<path d="M1020.84 131.712C1024.58 131.712 1027.61 129.026 1027.61 125.712C1027.61 122.398 1024.58 119.712 1020.84 119.712C1017.11 119.712 1014.08 122.398 1014.08 125.712C1014.08 129.026 1017.11 131.712 1020.84 131.712Z" fill="#FACD34"/>
<path d="M1014.35 44.288C1018.08 44.288 1021.11 41.6017 1021.11 38.288C1021.11 34.9744 1018.08 32.2881 1014.35 32.2881C1010.62 32.2881 1007.59 34.9744 1007.59 38.288C1007.59 41.6017 1010.62 44.288 1014.35 44.288Z" fill="#64C3A5"/>
</g>
</g>
<g opacity="0.4">
<g clip-path="url(#clip5_10710_38067)">
<path d="M1137.49 -9L1132.39 -5.42327L1137.49 -8.99929C1141.01 -5.05323 1145.38 -0.142074 1145.38 9.14775C1145.38 18.4376 1141.01 23.3491 1137.49 27.2955C1134.53 30.6124 1132.39 33.0086 1132.39 38.2891C1132.39 43.5692 1134.53 45.9651 1137.49 49.2819C1141.01 53.228 1145.38 58.1392 1145.38 67.4286C1145.38 76.7188 1141.01 81.6292 1137.49 85.5757C1134.53 88.8925 1132.39 91.2887 1132.39 96.5692C1132.39 101.85 1134.53 104.246 1137.49 107.562C1141.01 111.509 1145.38 116.42 1145.38 125.71C1145.38 135 1141.01 139.912 1137.49 143.858C1134.53 147.175 1132.39 149.572 1132.39 154.853C1132.39 160.135 1134.53 162.531 1137.49 165.848L1127.3 173C1123.78 169.054 1119.41 164.144 1119.41 154.853C1119.41 145.562 1123.78 140.651 1127.3 136.705C1130.26 133.387 1132.39 130.991 1132.39 125.709C1132.39 120.429 1130.26 118.032 1127.3 114.716C1123.78 110.77 1119.4 105.858 1119.4 96.5689C1119.4 87.2787 1123.78 82.3679 1127.3 78.4219C1130.26 75.105 1132.39 72.7088 1132.39 67.4283C1132.39 62.1478 1130.26 59.7519 1127.3 56.435C1123.78 52.489 1119.4 47.5782 1119.4 38.2887C1119.4 28.9985 1123.78 24.0877 1127.3 20.1417C1130.26 16.8252 1132.39 14.4289 1132.39 9.1481C1132.39 3.86761 1130.26 1.4714 1127.3 -1.84548L1137.49 -9Z" fill="#906AF1"/>
<path d="M1073.64 -9L1068.54 -5.42327L1073.64 -8.99929C1077.16 -5.05323 1081.53 -0.142074 1081.53 9.14775C1081.53 18.4376 1077.16 23.3491 1073.64 27.2955C1070.68 30.6124 1068.54 33.0086 1068.54 38.2891C1068.54 43.5692 1070.68 45.9651 1073.64 49.2819C1077.16 53.228 1081.53 58.1392 1081.53 67.4286C1081.53 76.7188 1077.16 81.6292 1073.64 85.5757C1070.68 88.8925 1068.54 91.2888 1068.54 96.5693C1068.54 101.85 1070.68 104.245 1073.64 107.56L1063.45 114.713C1059.93 110.769 1055.55 105.859 1055.55 96.5696C1055.55 87.2794 1059.93 82.369 1063.45 78.4226C1066.41 75.1057 1068.54 72.7095 1068.54 67.429C1068.54 62.1485 1066.41 59.7526 1063.45 56.4358C1059.93 52.4897 1055.55 47.5789 1055.55 38.2894C1055.55 29 1059.93 24.0885 1063.45 20.1424C1066.41 16.8255 1068.54 14.4293 1068.54 9.14846C1068.54 3.86797 1066.41 1.47176 1063.45 -1.84512L1073.64 -9Z" fill="#E35F3C"/>
<path d="M1201.34 -9L1196.24 -5.42327L1201.34 -8.99929C1204.86 -5.05323 1209.23 -0.142074 1209.23 9.14775C1209.23 18.4376 1204.85 23.3491 1201.34 27.2955C1198.38 30.6124 1196.24 33.0086 1196.24 38.2891C1196.24 43.5692 1198.38 45.9651 1201.34 49.2819C1204.85 53.228 1209.23 58.1392 1209.23 67.4286C1209.23 76.7188 1204.86 81.6292 1201.34 85.5757C1198.38 88.8925 1196.24 91.2888 1196.24 96.5693C1196.24 101.85 1198.38 104.245 1201.33 107.56L1191.15 114.713C1187.63 110.769 1183.25 105.859 1183.25 96.5696C1183.25 87.2794 1187.63 82.369 1191.15 78.4226C1194.11 75.1057 1196.24 72.7095 1196.24 67.429C1196.24 62.1485 1194.11 59.7526 1191.15 56.4358C1187.63 52.4897 1183.25 47.5789 1183.25 38.2894C1183.25 29 1187.63 24.0885 1191.15 20.1424C1194.11 16.8255 1196.24 14.4293 1196.24 9.14846C1196.24 3.86797 1194.11 1.47176 1191.15 -1.84512L1201.34 -9Z" fill="#E35F3C"/>
<path d="M1043.11 73.4276C1046.85 73.4276 1049.87 70.7414 1049.87 67.4277C1049.87 64.114 1046.85 61.4277 1043.11 61.4277C1039.38 61.4277 1036.35 64.114 1036.35 67.4277C1036.35 70.7414 1039.38 73.4276 1043.11 73.4276Z" fill="#FACD34"/>
<path d="M1036.62 160.852C1040.35 160.852 1043.38 158.166 1043.38 154.852C1043.38 151.538 1040.35 148.852 1036.62 148.852C1032.89 148.852 1029.86 151.538 1029.86 154.852C1029.86 158.166 1032.89 160.852 1036.62 160.852Z" fill="#64C3A5"/>
<path d="M1100.47 131.712C1104.2 131.712 1107.23 129.026 1107.23 125.712C1107.23 122.398 1104.2 119.712 1100.47 119.712C1096.74 119.712 1093.71 122.398 1093.71 125.712C1093.71 129.026 1096.74 131.712 1100.47 131.712Z" fill="#FACD34"/>
<path d="M1093.98 44.288C1097.71 44.288 1100.74 41.6017 1100.74 38.288C1100.74 34.9744 1097.71 32.2881 1093.98 32.2881C1090.24 32.2881 1087.22 34.9744 1087.22 38.288C1087.22 41.6017 1090.24 44.288 1093.98 44.288Z" fill="#64C3A5"/>
<path d="M1106.97 15.1479C1110.7 15.1479 1113.73 12.4616 1113.73 9.14791C1113.73 5.83422 1110.7 3.14795 1106.97 3.14795C1103.23 3.14795 1100.2 5.83422 1100.2 9.14791C1100.2 12.4616 1103.23 15.1479 1106.97 15.1479Z" fill="#FACD34"/>
<path d="M1157.82 102.66C1161.56 102.66 1164.58 99.9738 1164.58 96.6601C1164.58 93.3464 1161.56 90.6602 1157.82 90.6602C1154.09 90.6602 1151.06 93.3464 1151.06 96.6601C1151.06 99.9738 1154.09 102.66 1157.82 102.66Z" fill="#64C3A5"/>
<path d="M1157.82 160.852C1161.56 160.852 1164.58 158.165 1164.58 154.852C1164.58 151.538 1161.56 148.852 1157.82 148.852C1154.09 148.852 1151.06 151.538 1151.06 154.852C1151.06 158.165 1154.09 160.852 1157.82 160.852Z" fill="#FACD34"/>
<path d="M1170.81 73.4276C1174.55 73.4276 1177.57 70.7414 1177.57 67.4277C1177.57 64.114 1174.55 61.4277 1170.81 61.4277C1167.08 61.4277 1164.05 64.114 1164.05 67.4277C1164.05 70.7414 1167.08 73.4276 1170.81 73.4276Z" fill="#FACD34"/>
<path d="M1215.18 160.852C1218.91 160.852 1221.94 158.166 1221.94 154.852C1221.94 151.538 1218.91 148.852 1215.18 148.852C1211.45 148.852 1208.42 151.538 1208.42 154.852C1208.42 158.166 1211.45 160.852 1215.18 160.852Z" fill="#64C3A5"/>
<path d="M1228.17 131.712C1231.9 131.712 1234.93 129.026 1234.93 125.712C1234.93 122.398 1231.9 119.712 1228.17 119.712C1224.44 119.712 1221.41 122.398 1221.41 125.712C1221.41 129.026 1224.44 131.712 1228.17 131.712Z" fill="#FACD34"/>
<path d="M1221.67 44.288C1225.41 44.288 1228.44 41.6017 1228.44 38.288C1228.44 34.9744 1225.41 32.2881 1221.67 32.2881C1217.94 32.2881 1214.91 34.9744 1214.91 38.288C1214.91 41.6017 1217.94 44.288 1221.67 44.288Z" fill="#64C3A5"/>
</g>
<g clip-path="url(#clip6_10710_38067)">
<path d="M1342.56 -9L1337.46 -5.42327L1342.56 -8.99929C1346.08 -5.05323 1350.46 -0.142074 1350.46 9.14775C1350.46 18.4376 1346.08 23.3491 1342.56 27.2955C1339.6 30.6124 1337.47 33.0086 1337.47 38.2891C1337.47 43.5692 1339.6 45.9651 1342.56 49.2819C1346.08 53.228 1350.46 58.1392 1350.46 67.4286C1350.46 76.7188 1346.08 81.6292 1342.56 85.5757C1339.6 88.8925 1337.47 91.2887 1337.47 96.5692C1337.47 101.85 1339.6 104.246 1342.56 107.562C1346.08 111.509 1350.46 116.42 1350.46 125.71C1350.46 135 1346.08 139.912 1342.56 143.858C1339.6 147.175 1337.47 149.572 1337.47 154.853C1337.47 160.135 1339.6 162.531 1342.56 165.848L1332.37 173C1328.85 169.054 1324.48 164.144 1324.48 154.853C1324.48 145.562 1328.85 140.651 1332.37 136.705C1335.33 133.387 1337.47 130.991 1337.47 125.709C1337.47 120.429 1335.33 118.032 1332.37 114.716C1328.85 110.77 1324.48 105.858 1324.48 96.5689C1324.48 87.2787 1328.85 82.3679 1332.37 78.4219C1335.33 75.105 1337.47 72.7088 1337.47 67.4283C1337.47 62.1478 1335.33 59.7519 1332.37 56.435C1328.85 52.489 1324.48 47.5782 1324.48 38.2887C1324.48 28.9985 1328.85 24.0877 1332.37 20.1417C1335.33 16.8252 1337.47 14.4289 1337.47 9.1481C1337.47 3.86761 1335.33 1.4714 1332.37 -1.84548L1342.56 -9Z" fill="#906AF1"/>
<path d="M1278.71 -9L1273.61 -5.42327L1278.71 -8.99929C1282.23 -5.05323 1286.6 -0.142074 1286.6 9.14775C1286.6 18.4376 1282.23 23.3491 1278.71 27.2955C1275.75 30.6124 1273.61 33.0086 1273.61 38.2891C1273.61 43.5692 1275.75 45.9651 1278.71 49.2819C1282.23 53.228 1286.6 58.1392 1286.6 67.4286C1286.6 76.7188 1282.23 81.6292 1278.71 85.5757C1275.75 88.8925 1273.61 91.2888 1273.61 96.5693C1273.61 101.85 1275.75 104.245 1278.71 107.56L1268.52 114.713C1265 110.769 1260.62 105.859 1260.62 96.5696C1260.62 87.2794 1265 82.369 1268.52 78.4226C1271.48 75.1057 1273.61 72.7095 1273.61 67.429C1273.61 62.1485 1271.48 59.7526 1268.52 56.4358C1265 52.4897 1260.62 47.5789 1260.62 38.2894C1260.62 29 1265 24.0885 1268.52 20.1424C1271.48 16.8255 1273.61 14.4293 1273.61 9.14846C1273.61 3.86797 1271.48 1.47176 1268.52 -1.84512L1278.71 -9Z" fill="#E35F3C"/>
<path d="M1406.41 -9L1401.31 -5.42327L1406.41 -8.99929C1409.93 -5.05323 1414.3 -0.142074 1414.3 9.14775C1414.3 18.4376 1409.93 23.3491 1406.41 27.2955C1403.45 30.6124 1401.31 33.0086 1401.31 38.2891C1401.31 43.5692 1403.45 45.9651 1406.41 49.2819C1409.93 53.228 1414.3 58.1392 1414.3 67.4286C1414.3 76.7188 1409.93 81.6292 1406.41 85.5757C1403.45 88.8925 1401.31 91.2888 1401.31 96.5693C1401.31 101.85 1403.45 104.245 1406.41 107.56L1396.22 114.713C1392.7 110.769 1388.32 105.859 1388.32 96.5696C1388.32 87.2794 1392.7 82.369 1396.22 78.4226C1399.18 75.1057 1401.31 72.7095 1401.31 67.429C1401.31 62.1485 1399.18 59.7526 1396.22 56.4358C1392.7 52.4897 1388.32 47.5789 1388.32 38.2894C1388.32 29 1392.7 24.0885 1396.22 20.1424C1399.18 16.8255 1401.31 14.4293 1401.31 9.14846C1401.31 3.86797 1399.18 1.47176 1396.22 -1.84512L1406.41 -9Z" fill="#E35F3C"/>
<path d="M1248.18 73.4276C1251.92 73.4276 1254.95 70.7414 1254.95 67.4277C1254.95 64.114 1251.92 61.4277 1248.18 61.4277C1244.45 61.4277 1241.42 64.114 1241.42 67.4277C1241.42 70.7414 1244.45 73.4276 1248.18 73.4276Z" fill="#FACD34"/>
<path d="M1241.69 160.852C1245.42 160.852 1248.45 158.166 1248.45 154.852C1248.45 151.538 1245.42 148.852 1241.69 148.852C1237.96 148.852 1234.93 151.538 1234.93 154.852C1234.93 158.166 1237.96 160.852 1241.69 160.852Z" fill="#64C3A5"/>
<path d="M1305.54 131.712C1309.28 131.712 1312.3 129.026 1312.3 125.712C1312.3 122.398 1309.28 119.712 1305.54 119.712C1301.81 119.712 1298.78 122.398 1298.78 125.712C1298.78 129.026 1301.81 131.712 1305.54 131.712Z" fill="#FACD34"/>
<path d="M1299.05 44.288C1302.78 44.288 1305.81 41.6017 1305.81 38.288C1305.81 34.9744 1302.78 32.2881 1299.05 32.2881C1295.31 32.2881 1292.29 34.9744 1292.29 38.288C1292.29 41.6017 1295.31 44.288 1299.05 44.288Z" fill="#64C3A5"/>
<path d="M1312.04 15.1479C1315.77 15.1479 1318.8 12.4616 1318.8 9.14791C1318.8 5.83422 1315.77 3.14795 1312.04 3.14795C1308.3 3.14795 1305.28 5.83422 1305.28 9.14791C1305.28 12.4616 1308.3 15.1479 1312.04 15.1479Z" fill="#FACD34"/>
<path d="M1362.89 102.66C1366.63 102.66 1369.65 99.9738 1369.65 96.6601C1369.65 93.3464 1366.63 90.6602 1362.89 90.6602C1359.16 90.6602 1356.13 93.3464 1356.13 96.6601C1356.13 99.9738 1359.16 102.66 1362.89 102.66Z" fill="#64C3A5"/>
<path d="M1362.89 160.852C1366.63 160.852 1369.65 158.165 1369.65 154.852C1369.65 151.538 1366.63 148.852 1362.89 148.852C1359.16 148.852 1356.13 151.538 1356.13 154.852C1356.13 158.165 1359.16 160.852 1362.89 160.852Z" fill="#FACD34"/>
<path d="M1375.88 73.4276C1379.62 73.4276 1382.64 70.7414 1382.64 67.4277C1382.64 64.114 1379.62 61.4277 1375.88 61.4277C1372.15 61.4277 1369.12 64.114 1369.12 67.4277C1369.12 70.7414 1372.15 73.4276 1375.88 73.4276Z" fill="#FACD34"/>
<path d="M1420.25 160.852C1423.98 160.852 1427.01 158.166 1427.01 154.852C1427.01 151.538 1423.98 148.852 1420.25 148.852C1416.52 148.852 1413.49 151.538 1413.49 154.852C1413.49 158.166 1416.52 160.852 1420.25 160.852Z" fill="#64C3A5"/>
<path d="M1433.24 131.712C1436.97 131.712 1440 129.026 1440 125.712C1440 122.398 1436.97 119.712 1433.24 119.712C1429.51 119.712 1426.48 122.398 1426.48 125.712C1426.48 129.026 1429.51 131.712 1433.24 131.712Z" fill="#FACD34"/>
<path d="M1426.75 44.288C1430.48 44.288 1433.51 41.6017 1433.51 38.288C1433.51 34.9744 1430.48 32.2881 1426.75 32.2881C1423.01 32.2881 1419.98 34.9744 1419.98 38.288C1419.98 41.6017 1423.01 44.288 1426.75 44.288Z" fill="#64C3A5"/>
</g>
</g>
<defs>
<clipPath id="clip0_10710_38067">
<rect width="205.07" height="173" fill="white"/>
</clipPath>
<clipPath id="clip1_10710_38067">
<rect width="205.07" height="173" fill="white" transform="translate(205.07)"/>
</clipPath>
<clipPath id="clip2_10710_38067">
<rect width="205.07" height="173" fill="white" transform="translate(412.394)"/>
</clipPath>
<clipPath id="clip3_10710_38067">
<rect width="205.07" height="173" fill="white" transform="translate(617.465)"/>
</clipPath>
<clipPath id="clip4_10710_38067">
<rect width="205.07" height="173" fill="white" transform="translate(822.535)"/>
</clipPath>
<clipPath id="clip5_10710_38067">
<rect width="205.07" height="173" fill="white" transform="translate(1029.86)"/>
</clipPath>
<clipPath id="clip6_10710_38067">
<rect width="205.07" height="173" fill="white" transform="translate(1234.93)"/>
</clipPath>
</defs>
</svg>
