<svg width="173" height="165" viewBox="0 0 326 317" fill="none" xmlns="http://www.w3.org/2000/svg">
<g clip-path="url(#clip0)">
    <path d="M325.5 120.7C325.5 123.5 325 126.4 324.1 129C321.5 136.3 318.3 143.4 313.3 149.6C309.2 154.7 304.6 159.1 298.9 162.4C278.2 174.5 257.5 186.7 236.8 198.7C220 208.5 209 202.2 208.9 182.9C208.8 151.9 208.6 121 208.8 90C208.9 68.2 218.7 51.6 237.3 40.4C257.4 28.3 277.8 16.6 298.1 4.70001C301.4 2.80001 304.8 1.20001 308.6 0.400006C309.8 -0.099994 311 5.97537e-06 312.2 0.100006C313.7 0.100006 315.3 0.300006 316.7 0.700006C320.6 1.60001 322.5 3.40001 324.1 7.60001C325.1 10.3 325.5 13.1 325.5 15.9V120.7Z" fill="#E35F3C"/>
    <path d="M134.3 159C122.3 166 110.2 172.9 98.2 179.9C97.2 180.5 96.2 181.1 95.2 181.6C82.9 187.9 73 182.3 72.7 168.5C72.4 148 72.6 127.4 72.5 106.8C72.5 98.4 72.2 89.9 72.1 81.5C72.5 69.2 76.7 58.3 84.3 48.6C87.8 44.1 92 40.4 96.9 37.6C115.6 26.6 134.3 15.7 153 4.70001C168.3 -4.19999 178.3 1.40001 178.3 19C178.4 47.1 178.6 75.3 178.4 103.4C178.3 122.8 169.5 137.6 153 147.8C146.9 151.7 140.6 155.3 134.3 159Z" fill="#F3BA5A"/>
    <path d="M115.9 315.6C112.5 317.2 108.4 317 105.1 315.1C102.2 313.3 100.7 310.5 100.7 306.1C100.5 283 100 259.8 100.8 236.7C101.2 224.6 108.1 215 118.5 208.4C123.8 205.1 129.2 201.9 134.5 198.6C142.7 193.9 150.8 189.2 159 184.6C161.3 183.3 163.5 181.9 166.2 181.3C171.5 180.1 175.8 182.2 177.7 187.3C178.6 189.8 178.9 192.4 178.9 195.1C178.9 215.5 179.1 235.8 179 256.2C178.9 271.1 172.4 282.6 159.5 290.3C146.1 298.2 132.7 306 119.2 313.9C118.2 314.4 117.1 315.1 115.9 315.6Z" fill="#E35F3C"/>
    <path d="M60.2 238.7C60.2 246.5 60.3 254.3 60.2 262.1C60 273.1 55.2 281.5 45.8 287.2C35.5 293.4 25 299.5 14.5 305.5C5.6 310.6 0.199998 307.4 0.0999976 297C-2.35438e-06 281.1 -0.100002 265.2 0.0999976 249.3C0.199998 238.7 4.9 230.4 13.8 224.8C24.3 218.2 35.2 212.1 46 206C54.7 201 60 204.2 60.1 214.4C60.2 218.5 60.2 222.7 60.2 226.8C60.1 230.7 60.1 234.7 60.2 238.7C60.1 238.7 60.2 238.7 60.2 238.7Z" fill="#F3BA5A"/>
</g>
<defs>
    <clipPath id="clip0">
        <rect width="325.5" height="316.7" fill="white"/>
    </clipPath>
</defs>
</svg>
