<svg width="178" height="50" viewBox="0 0 178 50" fill="none" xmlns="http://www.w3.org/2000/svg">
<path d="M14.2934 9.36594L22.6434 4.55017C23.6473 3.97043 24.459 4.43992 24.459 5.5994V21.5974C24.459 22.7551 23.6473 24.1635 22.6434 24.7415L1.81737 36.7542C0.813453 37.334 0 36.8645 0 35.7068V19.7052C0 18.5475 0.813453 17.1409 1.81737 16.5611L14.2934 9.36594Z" fill="#7344EE"/>
<path d="M40.1461 37.5529L19.3201 49.5657C18.3162 50.1454 16.6893 50.1454 15.6872 49.5657L1.81739 41.5649C0.813473 40.9869 0.813473 40.0479 1.81739 39.47L22.6434 27.4573C23.6455 26.8775 25.2725 26.8775 26.2764 27.4573L40.1461 35.4563C41.1483 36.036 41.1483 36.975 40.1461 37.5529Z" fill="#7344EE"/>
<path d="M48.8396 41.5813C47.7948 41.3306 46.8799 40.9429 46.0913 40.4218C45.7745 40.2564 45.5306 39.9772 45.358 39.5842C45.1835 39.193 45.1034 38.7573 45.1141 38.2771C45.1283 37.6601 45.3046 37.1568 45.6463 36.7673C45.9863 36.3743 46.4064 36.1858 46.9101 36.1983C47.2519 36.2054 47.5705 36.2534 47.866 36.3405C48.1597 36.4259 48.5246 36.5664 48.9536 36.7584C49.678 37.027 50.3188 37.235 50.876 37.3844C51.4313 37.5338 52.1433 37.6209 53.0102 37.6405C53.6278 37.6547 54.1156 37.58 54.4733 37.4182C54.8311 37.2546 55.0145 37.0145 55.0216 36.6944C55.0269 36.4437 54.945 36.2481 54.7777 36.1076C54.6086 35.9671 54.2864 35.8284 53.8112 35.6914C53.3341 35.5563 52.5278 35.3607 51.3922 35.1046C49.3683 34.6689 47.9158 34.0483 47.0347 33.2409C46.1501 32.4335 45.7264 31.3114 45.7602 29.8745C45.7852 28.8252 46.1323 27.8863 46.8015 27.0576C47.4726 26.2289 48.384 25.5887 49.5374 25.137C50.6891 24.6835 51.9724 24.4736 53.3893 24.5074C54.4164 24.5305 55.4132 24.6799 56.3762 24.9538C57.3409 25.2277 58.1953 25.6011 58.9376 26.0741C59.6353 26.5009 59.9735 27.1714 59.9522 28.0819C59.9362 28.7221 59.7528 29.2538 59.4004 29.6789C59.0479 30.1057 58.6207 30.3119 58.1188 30.2995C57.5243 30.2853 56.8212 30.0754 56.0095 29.6682C55.4666 29.405 54.986 29.204 54.5677 29.0707C54.1494 28.9355 53.6528 28.8608 53.0832 28.8466C52.5136 28.8324 52.065 28.9088 51.7393 29.0724C51.4171 29.236 51.2515 29.4779 51.2444 29.7962C51.2355 30.1626 51.4527 30.4507 51.8923 30.6676C52.332 30.8828 53.2131 31.1318 54.5303 31.4145C56.7357 31.8555 58.2861 32.478 59.1797 33.2853C60.075 34.0945 60.5058 35.238 60.4719 36.7229C60.4328 38.3874 59.7119 39.6998 58.3057 40.6601C56.9013 41.6204 55.0358 42.0721 52.7076 42.0188C51.1714 41.9779 49.8845 41.8338 48.8396 41.5813Z" fill="#2D364F"/>
<path d="M78.9056 26.2888C79.8651 27.4875 80.3439 29.3049 80.3439 31.7466V39.1392C80.3439 40.007 80.0698 40.6899 79.5233 41.1932C78.9733 41.6946 78.231 41.9454 77.2947 41.9454C76.3585 41.9454 75.6162 41.6946 75.068 41.1932C74.5215 40.6917 74.2456 40.007 74.2456 39.1392V31.6097C74.2456 29.9665 73.5372 29.1466 72.1221 29.1466C71.2089 29.1466 70.4845 29.4365 69.9469 30.0198C69.4093 30.6031 69.1423 31.3838 69.1423 32.3637V39.1392C69.1423 40.007 68.8682 40.6899 68.32 41.1932C67.7717 41.6946 67.0295 41.9454 66.0932 41.9454C65.1569 41.9454 64.4147 41.6946 63.8682 41.1932C63.32 40.6917 63.0441 40.007 63.0441 39.1392V20.182C63.0441 19.3835 63.3306 18.7273 63.902 18.2134C64.4716 17.6994 65.2264 17.4434 66.1626 17.4434C67.0544 17.4434 67.7735 17.6817 68.3218 18.1618C68.87 18.6402 69.1441 19.2786 69.1441 20.0771V26.9202C69.7618 26.1235 70.5254 25.517 71.4403 25.108C72.3535 24.6972 73.3805 24.4909 74.5233 24.4909C76.4848 24.4927 77.9462 25.092 78.9056 26.2888Z" fill="#2D364F"/>
<path d="M92.6756 37.07C93.2007 36.4885 93.4624 35.7416 93.4624 34.8293V34.4185H92.9159C91.4528 34.4185 90.415 34.5501 89.7991 34.8133C89.1815 35.0765 88.8735 35.5139 88.8735 36.1292C88.8735 36.6539 89.0391 37.0878 89.3719 37.431C89.7012 37.7724 90.1284 37.9432 90.6553 37.9432C91.4759 37.9432 92.1505 37.6515 92.6756 37.07ZM97.3855 26.359C98.6297 27.6021 99.2527 29.4907 99.2527 32.023V39.1773C99.2527 40.0434 98.9964 40.7227 98.4802 41.2118C97.9676 41.7026 97.252 41.948 96.3389 41.948C95.5396 41.948 94.8828 41.7204 94.3702 41.2633C93.8558 40.8081 93.5763 40.191 93.53 39.4156C93.2096 40.2372 92.6739 40.8757 91.9191 41.3309C91.1662 41.7879 90.262 42.0156 89.2135 42.0156C88.0494 42.0156 86.9992 41.7826 86.0629 41.3149C85.1266 40.8472 84.3879 40.1981 83.8522 39.3641C83.3146 38.5318 83.0476 37.591 83.0476 36.54C83.0476 35.3325 83.3609 34.3669 83.9892 33.6485C84.6176 32.93 85.6162 32.4107 86.9885 32.0924C88.3574 31.7723 90.2068 31.614 92.5368 31.614H93.4624V31.2032C93.4624 30.4048 93.279 29.8286 92.9159 29.4747C92.551 29.1208 91.9334 28.9447 91.0647 28.9447C90.1284 28.9447 88.7578 29.2648 86.9547 29.9033C86.4278 30.0864 85.9828 30.1771 85.6179 30.1771C85.0483 30.1771 84.5909 29.9708 84.2473 29.5618C83.9056 29.151 83.7329 28.614 83.7329 27.9524C83.7329 27.4509 83.8362 27.0401 84.0409 26.72C84.2473 26.4017 84.5784 26.1154 85.0341 25.8646C85.8333 25.4538 86.839 25.1248 88.0494 24.8723C89.2598 24.6216 90.4471 24.4971 91.6112 24.4971C94.2153 24.4935 96.1395 25.116 97.3855 26.359Z" fill="#2D364F"/>
<path d="M115.214 25.0924C115.67 25.5156 115.899 26.1362 115.899 26.9578C115.899 27.8701 115.688 28.5317 115.266 28.9407C114.842 29.3515 114.082 29.6147 112.987 29.7285L111.96 29.8316C110.818 29.9686 110.002 30.3278 109.511 30.9093C109.02 31.4908 108.772 32.284 108.772 33.2887V39.1413C108.772 40.0767 108.482 40.7791 107.9 41.2451C107.318 41.7128 106.594 41.9457 105.725 41.9457C104.856 41.9457 104.132 41.7128 103.55 41.2451C102.968 40.7774 102.676 40.0767 102.676 39.1413V27.2993C102.676 26.4332 102.968 25.7592 103.55 25.2809C104.13 24.8007 104.833 24.5624 105.655 24.5624C106.499 24.5624 107.179 24.79 107.694 25.2471C108.206 25.7041 108.466 26.3407 108.466 27.1623V27.8132C108.829 26.8102 109.429 26.0349 110.264 25.4871C111.097 24.9412 111.971 24.6442 112.884 24.598L113.365 24.5642C114.141 24.493 114.758 24.6691 115.214 25.0924Z" fill="#2D364F"/>
<path d="M122.614 29.3713C122.135 29.8835 121.85 30.6322 121.756 31.6121H127.135C126.998 29.6043 126.131 28.5995 124.532 28.5995C123.731 28.5995 123.092 28.8574 122.614 29.3713ZM131.674 36.9507C132.005 37.3615 132.17 37.8967 132.17 38.5583C132.17 39.4706 131.724 40.1677 130.835 40.646C130.058 41.0355 129.139 41.3592 128.076 41.6224C127.014 41.8838 126.038 42.0172 125.148 42.0172C123.276 42.0172 121.643 41.6633 120.25 40.9555C118.856 40.2477 117.784 39.2323 117.03 37.9092C116.277 36.5879 115.899 35.0354 115.899 33.2552C115.899 31.5676 116.259 30.056 116.98 28.7222C117.699 27.3867 118.705 26.3499 119.993 25.6066C121.284 24.8668 122.74 24.4951 124.362 24.4951C125.937 24.4951 127.32 24.8366 128.505 25.5212C129.693 26.2041 130.611 27.1751 131.263 28.4306C131.914 29.6843 132.24 31.1568 132.24 32.8444C132.24 33.3691 132.121 33.7727 131.88 34.0591C131.64 34.3436 131.291 34.4876 130.835 34.4876H121.791C121.95 35.5813 122.304 36.3691 122.852 36.8493C123.402 37.3277 124.21 37.5677 125.285 37.5677C125.857 37.5677 126.382 37.5055 126.862 37.3792C127.341 37.2547 127.877 37.0769 128.472 36.8493C128.813 36.7124 129.15 36.5932 129.481 36.4901C129.812 36.3869 130.114 36.3353 130.389 36.3353C130.914 36.3353 131.341 36.5399 131.674 36.9507Z" fill="#2D364F"/>
<path d="M152.722 39.0042C152.722 39.7564 152.453 40.4304 151.918 41.0226C151.38 41.6166 150.736 41.9118 149.983 41.9118C149.344 41.9118 148.703 41.6255 148.064 41.0564L141.111 34.4499V39.0718C141.111 40.0072 140.821 40.715 140.237 41.1933C139.655 41.6717 138.931 41.9118 138.062 41.9118C137.195 41.9118 136.471 41.6717 135.887 41.1933C135.307 40.715 135.013 40.0072 135.013 39.0718V20.2853C135.013 19.3499 135.305 18.6421 135.887 18.1638C136.469 17.6854 137.195 17.4453 138.062 17.4453C138.931 17.4453 139.655 17.6854 140.237 18.1638C140.821 18.6439 141.111 19.3499 141.111 20.2853V31.8855L147.448 25.4514C148.018 24.8592 148.682 24.5622 149.436 24.5622C150.166 24.5622 150.81 24.8415 151.371 25.4016C151.93 25.96 152.211 26.5949 152.211 27.3009C152.211 28.0087 151.914 28.6578 151.321 29.2517L147.587 32.9489L151.834 37.0213C152.425 37.5904 152.722 38.252 152.722 39.0042Z" fill="#2D364F"/>
<path d="M155.752 41.2449C155.17 40.779 154.878 40.0765 154.878 39.1411V27.3685C154.878 26.4331 155.17 25.7324 155.752 25.2647C156.334 24.797 157.06 24.564 157.927 24.564C158.796 24.564 159.52 24.797 160.102 25.2647C160.684 25.7324 160.976 26.4348 160.976 27.3685V39.1411C160.976 40.0765 160.684 40.779 160.102 41.2449C159.52 41.7126 158.794 41.9456 157.927 41.9456C157.06 41.9456 156.334 41.7126 155.752 41.2449ZM155.479 21.3612C154.874 20.8242 154.572 20.1128 154.572 19.2219C154.572 18.3327 154.876 17.6249 155.479 17.1003C156.083 16.5757 156.9 16.3125 157.929 16.3125C158.933 16.3125 159.744 16.5757 160.362 17.1003C160.978 17.6249 161.286 18.3327 161.286 19.2219C161.286 20.111 160.983 20.8242 160.378 21.3612C159.773 21.8983 158.959 22.165 157.931 22.165C156.898 22.1668 156.083 21.8983 155.479 21.3612Z" fill="#2D364F"/>
<path d="M178 39.6542C178 40.4526 177.69 41.0466 177.074 41.4325C176.459 41.8202 175.579 41.9802 174.436 41.9127L173.479 41.8433C171.423 41.6833 169.864 41.0626 168.803 39.9796C167.74 38.8948 167.21 37.3832 167.21 35.4448V29.3878H166.215C164.388 29.3878 163.475 28.6338 163.475 27.1293C163.475 25.6461 164.388 24.9046 166.215 24.9046H167.21V22.6781C167.21 21.812 167.484 21.122 168.032 20.6081C168.578 20.0941 169.321 19.8398 170.257 19.8398C171.193 19.8398 171.936 20.0959 172.484 20.6081C173.032 21.122 173.306 21.812 173.306 22.6781V24.9046H175.189C177.017 24.9046 177.931 25.6461 177.931 27.1293C177.931 28.6355 177.017 29.3878 175.189 29.3878H173.306V35.957C173.306 36.3927 173.436 36.7572 173.7 37.0542C173.961 37.3512 174.298 37.5095 174.709 37.5326L175.702 37.6002C177.235 37.6926 178 38.3773 178 39.6542Z" fill="#2D364F"/>
<path d="M17.5668 22.3119L14.9591 23.8252C14.3717 24.1649 13.8964 23.8928 13.8946 23.2153L13.8857 19.3563C13.884 18.6787 14.3574 17.8536 14.9431 17.5121L17.5525 15.9987C18.1382 15.6591 18.6152 15.9312 18.617 16.6087L18.6259 20.4677C18.6277 21.147 18.1542 21.9722 17.5668 22.3119Z" fill="#F3BA5A"/>
<path d="M26.0752 11.4179L21.4774 14.0854C20.4433 14.6847 19.6013 14.2028 19.5978 13.0077L19.58 6.2038C19.5764 5.00875 20.413 3.55407 21.4472 2.95476L26.0449 0.287247C27.0791 -0.312056 27.9193 0.168095 27.9228 1.36314L27.9406 8.16709C27.946 9.36214 27.1094 10.8168 26.0752 11.4179Z" fill="#F3BA5A"/>
<path d="M26.5914 22.5098L23.188 24.4856C22.4244 24.9284 21.7996 24.5727 21.7979 23.6889L21.7854 18.6526C21.7836 17.767 22.4013 16.6911 23.1667 16.2465L26.57 14.2725C27.3354 13.828 27.9584 14.1836 27.962 15.0692L27.9745 20.1055C27.9745 20.9894 27.3568 22.0652 26.5914 22.5098Z" fill="#E35F3C"/>
<path d="M37.4761 12.5845L32.396 15.533C31.2532 16.1963 30.3241 15.6628 30.3205 14.3433L30.3009 6.82445C30.2974 5.50314 31.2212 3.8973 32.3639 3.2322L37.4441 0.285482C38.5868 -0.377841 39.516 0.153885 39.5195 1.4752L39.5391 8.99404C39.5427 10.3136 38.6189 11.9212 37.4761 12.5845Z" fill="#E35F3C"/>
<path d="M46.5219 12.7056C46.0253 12.5704 45.6212 12.3801 45.3062 12.1312C45.1958 12.0511 45.1175 11.9658 45.0712 11.8733C45.0231 11.7826 45 11.6688 45 11.5301C45 11.3469 45.057 11.1869 45.1709 11.0482C45.283 10.9094 45.413 10.8401 45.5589 10.8401C45.639 10.8401 45.7173 10.8525 45.7939 10.8774C45.8686 10.9041 45.963 10.9486 46.0733 11.0144C46.3866 11.2118 46.7035 11.354 47.0239 11.4447C47.346 11.5372 47.7003 11.5817 48.0865 11.5817C48.5689 11.5817 48.9356 11.5016 49.1919 11.3416C49.4482 11.1815 49.5746 10.9521 49.5746 10.6534C49.5746 10.4275 49.4553 10.2443 49.2186 10.1074C48.9819 9.97047 48.56 9.8371 47.9548 9.71439C47.2748 9.57568 46.7337 9.40674 46.3297 9.21112C45.9238 9.01372 45.6266 8.77009 45.4414 8.47844C45.2563 8.18679 45.162 7.83291 45.162 7.41678C45.162 6.95796 45.2955 6.5436 45.5625 6.17548C45.8295 5.80737 46.1979 5.51928 46.6679 5.31121C47.1396 5.10314 47.6682 5 48.261 5C49.2987 5 50.1513 5.25786 50.8224 5.77536C50.9327 5.86427 51.0111 5.95319 51.0573 6.04389C51.1054 6.13458 51.1285 6.24662 51.1285 6.37822C51.1285 6.55961 51.0716 6.72144 50.9594 6.86015C50.8455 6.99886 50.7156 7.06822 50.5696 7.06822C50.4895 7.06822 50.4148 7.05755 50.3471 7.03621C50.2759 7.01309 50.1816 6.96685 50.0552 6.89394C49.7562 6.70366 49.482 6.56139 49.2293 6.46713C48.9765 6.37288 48.6561 6.32487 48.2716 6.32487C47.8266 6.32487 47.476 6.41023 47.2197 6.58273C46.9669 6.75345 46.837 6.98997 46.837 7.28873C46.837 7.46301 46.8868 7.60883 46.9865 7.72087C47.0844 7.83468 47.2499 7.93427 47.4795 8.02141C47.7092 8.10855 48.0349 8.20102 48.4585 8.29527C49.45 8.514 50.1638 8.79499 50.5981 9.13643C51.0324 9.47965 51.2496 9.95091 51.2496 10.5467C51.2496 11.0144 51.1196 11.4252 50.8615 11.7826C50.6034 12.1401 50.2368 12.4175 49.7668 12.6149C49.2969 12.8123 48.7505 12.9101 48.131 12.9101C47.5543 12.9083 47.0185 12.8407 46.5219 12.7056Z" fill="#2D364F"/>
<path d="M53.9373 12.0731C53.373 11.5147 53.0883 10.7002 53.0883 9.62966V5.88803C53.0883 5.63373 53.1648 5.42922 53.3197 5.27628C53.4727 5.12334 53.6757 5.04688 53.932 5.04688C54.1865 5.04688 54.3894 5.12334 54.539 5.27628C54.6885 5.42922 54.7632 5.63373 54.7632 5.88803V9.70436C54.7632 10.3179 54.9039 10.7838 55.1851 11.1057C55.4646 11.4258 55.8722 11.5876 56.4062 11.5876C56.9402 11.5876 57.346 11.4258 57.6326 11.1004C57.9156 10.7767 58.058 10.3126 58.058 9.70614V5.88981C58.058 5.63551 58.1328 5.431 58.2823 5.27806C58.4318 5.12512 58.6347 5.04866 58.8893 5.04866C59.1438 5.04866 59.3485 5.12512 59.5034 5.27806C59.6565 5.431 59.733 5.63551 59.733 5.88981V9.63144C59.733 10.6967 59.4482 11.5076 58.8786 12.0696C58.309 12.6297 57.4849 12.9107 56.4026 12.9107C55.3257 12.9089 54.5033 12.6297 53.9373 12.0731Z" fill="#2D364F"/>
<path d="M66.2354 8.26684C66.4543 8.09612 66.5629 7.82759 66.5629 7.46303C66.5629 7.09135 66.4543 6.82105 66.2354 6.65388C66.0164 6.48672 65.6622 6.40314 65.1745 6.40314H63.5422V8.52292H65.1745C65.6622 8.52292 66.0164 8.43756 66.2354 8.26684ZM68.3696 12.197C68.3696 12.4015 68.2895 12.5687 68.1239 12.7003C67.9602 12.8319 67.7679 12.8976 67.549 12.8976C67.4119 12.8976 67.2749 12.8656 67.1432 12.7981C67.0132 12.7323 66.9029 12.6309 66.8174 12.4922L65.3721 10.3493C65.2475 10.159 65.1157 10.0239 64.9769 9.93849C64.8381 9.85491 64.6636 9.81222 64.4518 9.81222H63.5654V12.0209C63.5654 12.2823 63.4906 12.4904 63.3411 12.6451C63.1916 12.7981 62.9886 12.8745 62.7341 12.8745C62.4724 12.8745 62.2624 12.7981 62.1093 12.6451C61.9562 12.4922 61.8779 12.2841 61.8779 12.0209V5.8963C61.8779 5.642 61.9473 5.4446 62.0862 5.30589C62.225 5.16896 62.4226 5.09961 62.6771 5.09961H65.4255C66.3315 5.09961 67.015 5.29878 67.4778 5.69535C67.9424 6.09192 68.1756 6.66634 68.1756 7.4168C68.1756 8.00721 68.01 8.49981 67.6825 8.89282C67.3532 9.28762 66.8904 9.54547 66.2923 9.66818C66.5113 9.71264 66.7071 9.798 66.8779 9.92604C67.0488 10.0541 67.2161 10.2372 67.3763 10.4773L68.2094 11.7239C68.3162 11.8876 68.3696 12.044 68.3696 12.197Z" fill="#2D364F"/>
<path d="M70.4433 12.6398C70.2849 12.4833 70.2084 12.277 70.2084 12.0209V5.89808C70.2084 5.642 70.2778 5.44638 70.4184 5.30767C70.5555 5.16896 70.7531 5.09961 71.0094 5.09961H74.7758C75.0535 5.09961 75.2564 5.15296 75.3882 5.26321C75.5199 5.37347 75.5857 5.5442 75.5857 5.77716C75.5857 6.00479 75.5181 6.17195 75.3882 6.28043C75.2564 6.38891 75.0535 6.44404 74.7758 6.44404H71.8976V8.21527H74.5569C74.8346 8.21527 75.0393 8.2704 75.1692 8.38066C75.301 8.48914 75.3668 8.65986 75.3668 8.89282C75.3668 9.12045 75.2992 9.28761 75.1692 9.39609C75.0375 9.50634 74.8346 9.5597 74.5569 9.5597H71.8976V12.0191C71.8976 12.2823 71.8228 12.4904 71.6733 12.6433C71.5238 12.7963 71.3209 12.8728 71.0646 12.8728C70.8065 12.8763 70.6018 12.7981 70.4433 12.6398Z" fill="#2D364F"/>
</svg>
