<svg width="424" height="511" viewBox="0 0 424 511" fill="none" xmlns="http://www.w3.org/2000/svg">
<path fill-rule="evenodd" clip-rule="evenodd" d="M303.89 6.52108C302.444 22.1027 298.559 46.6813 295.87 57.271C285.913 96.4759 266.938 108.597 203.823 116.073C194.503 117.176 186.876 118.375 186.876 118.736C186.876 119.097 193.1 120.044 200.708 120.84C265.488 127.62 285.705 140.195 295.812 179.991C298.683 191.296 302.706 216.649 303.948 231.271C304.33 235.78 304.863 239.249 305.132 238.981C305.401 238.712 306.332 232.232 307.203 224.58C314.956 156.372 327.416 136.97 369.8 127.111C378.703 125.041 403.26 121.375 415.249 120.326C420.063 119.905 424 119.197 424 118.751C424 118.306 420.316 117.601 415.814 117.187C393.777 115.158 367.802 110.305 355.977 106.008C326.499 95.295 315.306 75.7196 308.762 23.4392C305.471 -2.85495 304.934 -4.71933 303.89 6.52108ZM95.5304 93.3675C87.9763 156.805 77.64 168.564 22.6973 176.225C13.9395 177.445 5.2506 178.615 3.38748 178.823L0 179.203L3.95206 179.912C6.1257 180.301 14.3618 181.449 22.2546 182.463C68.4757 188.401 82.667 199.045 90.334 233.523C91.8144 240.182 93.8751 252.483 94.9116 260.857C96.593 274.425 97.6724 280.11 97.6724 275.392C97.6724 270.655 101.447 244.366 103.473 234.996C109.163 208.669 118.039 197.128 138.265 189.755C147.642 186.336 165.754 182.659 179.537 181.377C195.392 179.9 194.909 179.374 175.262 176.715C164.837 175.304 152.23 173.121 147.246 171.862C117.087 164.244 106.396 149.257 100.507 106.338C99.443 98.5839 98.2201 89.7019 97.7899 86.6002C97.0412 81.2056 96.943 81.4977 95.5304 93.3675ZM226.533 160.238C218.357 247.449 206.644 284.154 180.511 304.456C160.639 319.893 126.513 328.922 63.5051 335.413C56.2029 336.165 50.4419 336.995 50.7039 337.257C50.967 337.519 59.9901 338.721 70.7566 339.928C81.5232 341.136 98.2088 343.393 107.835 344.945C190.193 358.222 210.241 381.788 222.442 479.665C227.425 519.633 226.652 518.179 229.637 493.199C238.166 421.82 246.261 396.363 266.954 375.85C285.403 357.559 313.149 348.447 371.57 341.489C385.191 339.867 398.114 338.239 400.288 337.872C402.965 337.419 394.766 336.02 374.881 333.535C330.273 327.959 307.125 322.694 289.065 314.017C253.678 297.016 240.133 268.363 230.876 190.929C228.183 168.402 226.73 158.135 226.533 160.238Z" fill="#7344EE"/>
</svg>
