<svg width="14" height="14" viewBox="0 0 14 14" fill="none" xmlns="http://www.w3.org/2000/svg">
<path d="M5.05559 1.3125C5.05559 2.03711 4.53302 2.625 3.88892 2.625C3.24482 2.625 2.72225 2.03711 2.72225 1.3125C2.72225 0.587891 3.24482 0 3.88892 0C4.53302 0 5.05559 0.587891 5.05559 1.3125ZM3.69448 9.625V13.125C3.69448 13.609 3.34691 14 2.9167 14C2.48649 14 2.13892 13.609 2.13892 13.125V7.02461L1.44378 8.32617C1.2226 8.73906 0.743781 8.87305 0.376767 8.62422C0.00975354 8.37539 -0.109344 7.83672 0.111837 7.42383L1.52885 4.77148C1.95177 3.98125 2.7101 3.49727 3.5292 3.49727H4.25107C5.07017 3.49727 5.8285 3.98125 6.25142 4.77148L7.34274 6.81406C6.95142 7.29531 6.6476 7.8668 6.45316 8.4957C6.40698 8.44648 6.36809 8.38906 6.33406 8.32344L5.63892 7.02461V13.125C5.63892 13.609 5.29135 14 4.86114 14C4.43093 14 4.08336 13.609 4.08336 13.125V9.625H3.69448ZM10.5 14C8.56774 14 7.00003 12.2363 7.00003 10.0625C7.00003 7.88867 8.56774 6.125 10.5 6.125C12.4323 6.125 14 7.88867 14 10.0625C14 12.2363 12.4323 14 10.5 14ZM10.5 12.6875C10.8233 12.6875 11.0834 12.3949 11.0834 12.0312C11.0834 11.6676 10.8233 11.375 10.5 11.375C10.1768 11.375 9.9167 11.6676 9.9167 12.0312C9.9167 12.3949 10.1768 12.6875 10.5 12.6875ZM10.5 7.4375C10.2861 7.4375 10.1111 7.63438 10.1111 7.875V10.0625C10.1111 10.3031 10.2861 10.5 10.5 10.5C10.7139 10.5 10.8889 10.3031 10.8889 10.0625V7.875C10.8889 7.63438 10.7139 7.4375 10.5 7.4375Z" fill="#2D364F"/>
</svg>
