<svg width="10" height="14" viewBox="0 0 10 14" fill="none" xmlns="http://www.w3.org/2000/svg">
<path d="M7.30572 7H2.43524V8.75H7.30572V7ZM9.56339 2.87109L7.07996 0.191406C6.9658 0.0683594 6.81106 0 6.64872 0H6.49398V3.5H9.74096V3.3332C9.74096 3.16094 9.67755 2.99414 9.56339 2.87109ZM5.68223 3.71875V0H0.60881C0.271428 0 0 0.292578 0 0.65625V13.3438C0 13.7074 0.271428 14 0.60881 14H9.13215C9.46954 14 9.74096 13.7074 9.74096 13.3438V4.375H6.29104C5.95619 4.375 5.68223 4.07969 5.68223 3.71875ZM1.62349 1.96875C1.62349 1.84789 1.71431 1.75 1.82643 1.75H3.8558C3.96792 1.75 4.05873 1.84789 4.05873 1.96875V2.40625C4.05873 2.52711 3.96792 2.625 3.8558 2.625H1.82643C1.71431 2.625 1.62349 2.52711 1.62349 2.40625V1.96875ZM1.62349 3.71875C1.62349 3.59789 1.71431 3.5 1.82643 3.5H3.8558C3.96792 3.5 4.05873 3.59789 4.05873 3.71875V4.15625C4.05873 4.27711 3.96792 4.375 3.8558 4.375H1.82643C1.71431 4.375 1.62349 4.27711 1.62349 4.15625V3.71875ZM8.11747 12.0312C8.11747 12.1521 8.02666 12.25 7.91453 12.25H5.88517C5.77304 12.25 5.68223 12.1521 5.68223 12.0312V11.5938C5.68223 11.4729 5.77304 11.375 5.88517 11.375H7.91453C8.02666 11.375 8.11747 11.4729 8.11747 11.5938V12.0312ZM8.11747 6.5625V9.1875C8.11747 9.42922 7.93584 9.625 7.7116 9.625H2.02937C1.80512 9.625 1.62349 9.42922 1.62349 9.1875V6.5625C1.62349 6.32078 1.80512 6.125 2.02937 6.125H7.7116C7.93584 6.125 8.11747 6.32078 8.11747 6.5625Z" fill="#7344EE"/>
</svg>
