<svg width="16" height="16" viewBox="0 0 16 16" fill="none" xmlns="http://www.w3.org/2000/svg">
<g clip-path="url(#clip0_1682_2944)">
<path d="M7.89268 0.779175C3.75749 0.779175 0.392822 4.14217 0.392822 8.27842C0.392822 12.413 3.75749 15.7777 7.89268 15.7777C12.0284 15.7777 15.3928 12.413 15.3928 8.27842C15.3928 4.14217 12.0284 0.779175 7.89268 0.779175ZM7.89268 14.1069C4.67839 14.1069 2.06367 11.4923 2.06367 8.27846C2.06367 5.06323 4.67839 2.44867 7.89268 2.44867C11.1073 2.44867 13.7221 5.06327 13.7221 8.27846C13.722 11.4923 11.1073 14.1069 7.89268 14.1069Z" fill="#2D364F"/>
<path d="M10.3543 9.63699C9.87519 10.4591 8.9843 10.9692 8.02935 10.9692C6.5464 10.9692 5.33846 9.76149 5.33846 8.2785C5.33846 6.79429 6.5464 5.58622 8.02935 5.58622C8.98434 5.58622 9.87519 6.0981 10.3543 6.91863L10.4162 7.02586H12.2237L12.1152 6.73485C11.8007 5.9016 11.2488 5.19312 10.5183 4.68745C9.78588 4.18046 8.9256 3.9115 8.02935 3.9115C5.62175 3.9115 3.66382 5.8711 3.66382 8.2785C3.66382 10.6861 5.62175 12.6438 8.02935 12.6438C8.9256 12.6438 9.78584 12.3758 10.5183 11.868C11.2488 11.3622 11.8007 10.654 12.1152 9.82072L12.2237 9.52956H10.4162L10.3543 9.63699Z" fill="#2D364F"/>
</g>
<defs>
<clipPath id="clip0_1682_2944">
<rect width="15" height="15" fill="white" transform="translate(0.392822 0.778442)"/>
</clipPath>
</defs>
</svg>
