<svg width="15" height="15" viewBox="0 0 15 15" fill="none" xmlns="http://www.w3.org/2000/svg">
<path d="M0.9375 13.5938C0.9375 14.3701 1.56738 15 2.34375 15H12.6562C13.4326 15 14.0625 14.3701 14.0625 13.5938V5.625H0.9375V13.5938ZM10.3125 7.85156C10.3125 7.6582 10.4707 7.5 10.6641 7.5H11.8359C12.0293 7.5 12.1875 7.6582 12.1875 7.85156V9.02344C12.1875 9.2168 12.0293 9.375 11.8359 9.375H10.6641C10.4707 9.375 10.3125 9.2168 10.3125 9.02344V7.85156ZM10.3125 11.6016C10.3125 11.4082 10.4707 11.25 10.6641 11.25H11.8359C12.0293 11.25 12.1875 11.4082 12.1875 11.6016V12.7734C12.1875 12.9668 12.0293 13.125 11.8359 13.125H10.6641C10.4707 13.125 10.3125 12.9668 10.3125 12.7734V11.6016ZM6.5625 7.85156C6.5625 7.6582 6.7207 7.5 6.91406 7.5H8.08594C8.2793 7.5 8.4375 7.6582 8.4375 7.85156V9.02344C8.4375 9.2168 8.2793 9.375 8.08594 9.375H6.91406C6.7207 9.375 6.5625 9.2168 6.5625 9.02344V7.85156ZM6.5625 11.6016C6.5625 11.4082 6.7207 11.25 6.91406 11.25H8.08594C8.2793 11.25 8.4375 11.4082 8.4375 11.6016V12.7734C8.4375 12.9668 8.2793 13.125 8.08594 13.125H6.91406C6.7207 13.125 6.5625 12.9668 6.5625 12.7734V11.6016ZM2.8125 7.85156C2.8125 7.6582 2.9707 7.5 3.16406 7.5H4.33594C4.5293 7.5 4.6875 7.6582 4.6875 7.85156V9.02344C4.6875 9.2168 4.5293 9.375 4.33594 9.375H3.16406C2.9707 9.375 2.8125 9.2168 2.8125 9.02344V7.85156ZM2.8125 11.6016C2.8125 11.4082 2.9707 11.25 3.16406 11.25H4.33594C4.5293 11.25 4.6875 11.4082 4.6875 11.6016V12.7734C4.6875 12.9668 4.5293 13.125 4.33594 13.125H3.16406C2.9707 13.125 2.8125 12.9668 2.8125 12.7734V11.6016ZM12.6562 1.875H11.25V0.46875C11.25 0.210938 11.0391 0 10.7812 0H9.84375C9.58594 0 9.375 0.210938 9.375 0.46875V1.875H5.625V0.46875C5.625 0.210938 5.41406 0 5.15625 0H4.21875C3.96094 0 3.75 0.210938 3.75 0.46875V1.875H2.34375C1.56738 1.875 0.9375 2.50488 0.9375 3.28125V4.6875H14.0625V3.28125C14.0625 2.50488 13.4326 1.875 12.6562 1.875Z" fill="#7344EE"/>
</svg>
