<svg width="24" height="26" viewBox="0 0 24 26" fill="none" xmlns="http://www.w3.org/2000/svg">
<path fill-rule="evenodd" clip-rule="evenodd" d="M9.33193 3.23462L6.66654 6.4857L8.66575 6.48892L10.6649 6.49213V12.3445V18.1968H11.9999H13.3349V12.3445V6.49213L15.3341 6.48892L17.3333 6.4857L14.682 3.25132C13.2237 1.4724 12.0231 0.00941907 12.014 0.000230621C12.0003 -0.0134313 11.5129 0.574401 9.33193 3.23462ZM2.28255 9.11698C2.00598 9.15637 1.72922 9.24228 1.47125 9.36882C0.646092 9.77356 0.105253 10.5463 0.0112706 11.4549C0.000838294 11.5558 -0.00194887 13.2749 0.00125507 17.644L0.00569629 23.6934L0.0337893 23.8332C0.129881 24.3116 0.321154 24.7157 0.612451 25.0558C0.986556 25.4926 1.46454 25.7866 2.02516 25.9247C2.35574 26.0062 1.53836 26.0001 12.0038 25.9998C20.1485 25.9996 21.5537 25.9969 21.6721 25.9816C22.5593 25.8663 23.3252 25.3329 23.7213 24.5542C23.8409 24.3191 23.9147 24.0971 23.9716 23.8012C23.9936 23.6869 23.995 23.3699 23.9989 17.6377C24.0019 13.2772 23.999 11.5557 23.9885 11.4549C23.9672 11.2489 23.9285 11.0694 23.8639 10.878C23.5425 9.92475 22.6772 9.23159 21.6576 9.11047C21.585 9.10184 20.6001 9.09736 18.776 9.09736H16.0048V10.3937V11.69H18.6683H21.3317V17.5487V23.4075H11.9999H2.66813V17.5487V11.69H5.33807H8.00801V10.3937V9.09736L5.20457 9.09872C2.94682 9.09982 2.37805 9.10338 2.28255 9.11698Z" fill="#7344EE"/>
</svg>
