<svg width="14" height="9" viewBox="0 0 14 9" fill="none" xmlns="http://www.w3.org/2000/svg">
<path d="M13.9154 4.15781C12.5973 1.67789 9.98789 0 7 0C4.01211 0 1.40193 1.67906 0.0845702 4.15805C0.0289692 4.2641 0 4.38128 0 4.50012C0 4.61896 0.0289692 4.73613 0.0845702 4.84219C1.40266 7.32211 4.01211 9 7 9C9.98789 9 12.5981 7.32094 13.9154 4.84195C13.971 4.7359 14 4.61872 14 4.49988C14 4.38104 13.971 4.26387 13.9154 4.15781ZM7 7.875C6.30776 7.875 5.63107 7.67706 5.0555 7.30621C4.47993 6.93536 4.03132 6.40826 3.76642 5.79156C3.50151 5.17486 3.4322 4.49626 3.56725 3.84157C3.70229 3.18688 4.03564 2.58552 4.52512 2.11351C5.01461 1.64151 5.63825 1.32007 6.31718 1.18985C6.99612 1.05962 7.69985 1.12646 8.33939 1.38191C8.97894 1.63735 9.52556 2.06993 9.91015 2.62495C10.2947 3.17997 10.5 3.83249 10.5 4.5C10.5002 4.94327 10.4099 5.38224 10.234 5.79181C10.0582 6.20138 9.80043 6.57353 9.47538 6.88697C9.15033 7.20041 8.7644 7.449 8.33966 7.61853C7.91492 7.78807 7.45969 7.87522 7 7.875ZM7 2.25C6.79173 2.25281 6.58481 2.28269 6.38483 2.33883C6.54967 2.55485 6.62878 2.82068 6.6078 3.08811C6.58681 3.35555 6.46714 3.60688 6.27047 3.79652C6.0738 3.98617 5.81316 4.10157 5.53582 4.1218C5.25848 4.14203 4.9828 4.06575 4.75878 3.9068C4.63122 4.35998 4.65424 4.84033 4.82462 5.28023C4.995 5.72014 5.30414 6.09745 5.70855 6.35905C6.11295 6.62066 6.59225 6.75339 7.07899 6.73856C7.56572 6.72374 8.03537 6.5621 8.42185 6.2764C8.80832 5.9907 9.09216 5.59533 9.2334 5.14593C9.37464 4.69654 9.36618 4.21574 9.20921 3.77123C9.05224 3.32671 8.75466 2.94085 8.35835 2.66796C7.96205 2.39507 7.48697 2.24889 7 2.25Z" fill="#2D364F"/>
</svg>
