<svg width="4" height="12" viewBox="0 0 4 12" fill="none" xmlns="http://www.w3.org/2000/svg">
<path d="M2 4.3125C2.93281 4.3125 3.6875 5.06719 3.6875 6C3.6875 6.93281 2.93281 7.6875 2 7.6875C1.06719 7.6875 0.3125 6.93281 0.3125 6C0.3125 5.06719 1.06719 4.3125 2 4.3125ZM0.3125 1.875C0.3125 2.80781 1.06719 3.5625 2 3.5625C2.93281 3.5625 3.6875 2.80781 3.6875 1.875C3.6875 0.942188 2.93281 0.1875 2 0.1875C1.06719 0.1875 0.3125 0.942188 0.3125 1.875ZM0.3125 10.125C0.3125 11.0578 1.06719 11.8125 2 11.8125C2.93281 11.8125 3.6875 11.0578 3.6875 10.125C3.6875 9.19219 2.93281 8.4375 2 8.4375C1.06719 8.4375 0.3125 9.19219 0.3125 10.125Z" fill="#2D364F"/>
</svg>
