<svg width="9" height="10" viewBox="0 0 9 10" fill="none" xmlns="http://www.w3.org/2000/svg">
<g clip-path="url(#clip0_10502_19469)">
<path d="M4.125 0.147461C1.91817 0.147461 0.128906 2.19307 0.128906 4.71443C0.128906 7.23725 1.91817 9.28139 4.125 9.28139C6.33183 9.28139 8.12109 7.23725 8.12109 4.71443C8.12109 2.19307 6.33183 0.147461 4.125 0.147461ZM4.125 2.17313C4.49876 2.17313 4.80176 2.51941 4.80176 2.94657C4.80176 3.37373 4.49876 3.72001 4.125 3.72001C3.75124 3.72001 3.44824 3.37373 3.44824 2.94657C3.44824 2.51941 3.75124 2.17313 4.125 2.17313ZM5.02734 6.85059C5.02734 6.97262 4.94077 7.07157 4.83398 7.07157H3.41602C3.30923 7.07157 3.22266 6.97262 3.22266 6.85059V6.40862C3.22266 6.28658 3.30923 6.18764 3.41602 6.18764H3.60938V5.00907H3.41602C3.30923 5.00907 3.22266 4.91012 3.22266 4.78809V4.34612C3.22266 4.22408 3.30923 4.12514 3.41602 4.12514H4.44727C4.55405 4.12514 4.64062 4.22408 4.64062 4.34612V6.18764H4.83398C4.94077 6.18764 5.02734 6.28658 5.02734 6.40862V6.85059Z" fill="#2D364F"/>
</g>
<defs>
<clipPath id="clip0_10502_19469">
<rect width="8.25" height="9.42857" fill="white"/>
</clipPath>
</defs>
</svg>
