<svg width="14" height="12" viewBox="0 0 14 12" fill="none" xmlns="http://www.w3.org/2000/svg">
<g clip-path="url(#clip0_12965_35607)">
<path d="M0.338916 3.46842L6.70837 5.94506C6.89431 6.01748 7.10458 6.01748 7.29052 5.94506L13.66 3.46842C14.1125 3.2924 14.1125 2.70623 13.66 2.53021L7.29079 0.053339C7.19944 0.0175478 7.10016 -0.000976562 6.99972 -0.000976562C6.89927 -0.000976562 6.8 0.0175478 6.70864 0.053339L0.338916 2.52998C-0.113623 2.706 -0.113623 3.2924 0.338916 3.46842ZM13.6602 5.53748L12.0718 4.92037L7.652 6.63764C7.44528 6.71803 7.22571 6.75881 6.99958 6.75881C6.77345 6.75881 6.55415 6.71803 6.34716 6.63764L1.92759 4.92037L0.338916 5.53748C-0.113623 5.71326 -0.113623 6.2992 0.338916 6.47498L6.70837 8.94975C6.89431 9.02193 7.10458 9.02193 7.29052 8.94975L13.6602 6.47498C14.1128 6.2992 14.1128 5.71326 13.6602 5.53748ZM13.6602 8.53279L12.0779 7.91803L7.652 9.63764C7.44528 9.71803 7.22571 9.75881 6.99958 9.75881C6.77345 9.75881 6.55415 9.71803 6.34716 9.63764L1.92157 7.91803L0.338916 8.53279C-0.113623 8.70857 -0.113623 9.29451 0.338916 9.47029L6.70837 11.9451C6.89431 12.0172 7.10458 12.0172 7.29052 11.9451L13.6602 9.47029C14.1128 9.29451 14.1128 8.70857 13.6602 8.53279Z" fill="#2D364F"/>
</g>
<defs>
<clipPath id="clip0_12965_35607">
<rect width="14" height="12" fill="white"/>
</clipPath>
</defs>
</svg>
