<svg width="11" height="12" viewBox="0 0 11 12" fill="none" xmlns="http://www.w3.org/2000/svg">
<path d="M5.49935 12.0003C6.23143 12.0003 6.82526 11.3768 6.82526 10.6074H4.17344C4.17344 11.3768 4.76727 12.0003 5.49935 12.0003ZM9.96375 8.74208C9.5633 8.29027 8.81402 7.6106 8.81402 5.38421C8.81402 3.69319 7.68481 2.33951 6.1622 2.0074V1.55385C6.1622 1.16929 5.86539 0.857422 5.49935 0.857422C5.13331 0.857422 4.8365 1.16929 4.8365 1.55385V2.0074C3.31389 2.33951 2.18468 3.69319 2.18468 5.38421C2.18468 7.6106 1.4354 8.29027 1.03495 8.74208C0.910588 8.88246 0.855454 9.05025 0.85649 9.21457C0.85877 9.57148 1.12553 9.91099 1.52183 9.91099H9.47687C9.87317 9.91099 10.1401 9.57148 10.1422 9.21457C10.1432 9.05025 10.0881 8.88224 9.96375 8.74208Z" fill="white"/>
</svg>
