<svg width="13" height="14" viewBox="0 0 13 14" fill="none" xmlns="http://www.w3.org/2000/svg">
<path d="M11.9219 13.125H11.375V0.65625C11.375 0.293809 11.0812 0 10.7188 0H1.53125C1.16881 0 0.875 0.293809 0.875 0.65625V13.125H0.328125C0.146918 13.125 0 13.2719 0 13.4531V14H12.25V13.4531C12.25 13.2719 12.1031 13.125 11.9219 13.125ZM3.5 2.07812C3.5 1.89692 3.64692 1.75 3.82812 1.75H4.92188C5.10308 1.75 5.25 1.89692 5.25 2.07812V3.17188C5.25 3.35308 5.10308 3.5 4.92188 3.5H3.82812C3.64692 3.5 3.5 3.35308 3.5 3.17188V2.07812ZM3.5 4.70312C3.5 4.52192 3.64692 4.375 3.82812 4.375H4.92188C5.10308 4.375 5.25 4.52192 5.25 4.70312V5.79688C5.25 5.97808 5.10308 6.125 4.92188 6.125H3.82812C3.64692 6.125 3.5 5.97808 3.5 5.79688V4.70312ZM4.92188 8.75H3.82812C3.64692 8.75 3.5 8.60308 3.5 8.42188V7.32812C3.5 7.14692 3.64692 7 3.82812 7H4.92188C5.10308 7 5.25 7.14692 5.25 7.32812V8.42188C5.25 8.60308 5.10308 8.75 4.92188 8.75ZM7 13.125H5.25V10.8281C5.25 10.6469 5.39692 10.5 5.57812 10.5H6.67188C6.85308 10.5 7 10.6469 7 10.8281V13.125ZM8.75 8.42188C8.75 8.60308 8.60308 8.75 8.42188 8.75H7.32812C7.14692 8.75 7 8.60308 7 8.42188V7.32812C7 7.14692 7.14692 7 7.32812 7H8.42188C8.60308 7 8.75 7.14692 8.75 7.32812V8.42188ZM8.75 5.79688C8.75 5.97808 8.60308 6.125 8.42188 6.125H7.32812C7.14692 6.125 7 5.97808 7 5.79688V4.70312C7 4.52192 7.14692 4.375 7.32812 4.375H8.42188C8.60308 4.375 8.75 4.52192 8.75 4.70312V5.79688ZM8.75 3.17188C8.75 3.35308 8.60308 3.5 8.42188 3.5H7.32812C7.14692 3.5 7 3.35308 7 3.17188V2.07812C7 1.89692 7.14692 1.75 7.32812 1.75H8.42188C8.60308 1.75 8.75 1.89692 8.75 2.07812V3.17188Z" fill="#7344EE"/>
</svg>
