<svg width="108" height="180" viewBox="0 0 108 180" fill="none" xmlns="http://www.w3.org/2000/svg">
<mask id="mask0" mask-type="alpha" maskUnits="userSpaceOnUse" x="33" y="0" width="75" height="80">
<g clip-path="url(#clip0)">
<path d="M80.5342 33.9198L59.5712 46.0227L63.5937 52.9898L84.5567 40.8868L80.5342 33.9198ZM80.761 11.8716L63.9127 7.37453C63.1385 7.16832 62.3154 7.28069 61.6166 7.68413L60.9506 8.06865L68.9955 22.0028L82.9708 13.9341L82.5874 13.2701C82.1915 12.5843 81.5351 12.0778 80.761 11.8716ZM66.0045 24.8908L57.4568 10.0858L35.6204 22.6931C34.1682 23.5315 33.6725 25.3708 34.5084 26.8186L63.6711 77.3299C64.507 78.7777 66.3478 79.268 67.7999 78.4297L104.485 57.2495C105.937 56.4111 106.433 54.5718 105.597 53.1239L84.982 17.4177L70.1333 25.9906C68.6921 26.8227 66.8341 26.3278 66.0045 24.8908ZM44.5129 28.0096C44.2351 27.5284 44.401 26.913 44.8836 26.6344L53.6181 21.5915C54.1007 21.3129 54.7166 21.4769 54.9944 21.9581L56 23.6999C56.2778 24.181 56.1119 24.7964 55.6293 25.075L46.8948 30.1179C46.4122 30.3966 45.7963 30.2325 45.5185 29.7513L44.5129 28.0096ZM48.5353 34.9766C48.2575 34.4955 48.4234 33.8801 48.906 33.6015L57.6406 28.5586C58.1231 28.2799 58.739 28.444 59.0168 28.9252L60.0224 30.6669C60.3002 31.1481 60.1344 31.7635 59.6518 32.0421L50.9172 37.085C50.4346 37.3636 49.8188 37.1996 49.541 36.7184L48.5353 34.9766ZM95.5926 51.9329C95.8704 52.4141 95.7045 53.0295 95.2219 53.3081L86.4873 58.351C86.0048 58.6296 85.3889 58.4656 85.1111 57.9844L84.1055 56.2427C83.8277 55.7615 83.9935 55.1461 84.4761 54.8675L93.2107 49.8246C93.6933 49.546 94.3091 49.71 94.5869 50.1912L95.5926 51.9329ZM83.0224 30.1608L89.0561 40.6115C89.6117 41.5738 89.28 42.8046 88.3148 43.3618L63.858 57.4819C62.8928 58.0392 61.6611 57.7111 61.1055 56.7488L55.0718 46.2981C54.5162 45.3358 54.8479 44.105 55.8131 43.5478L80.2699 29.4277C81.2351 28.8704 82.4668 29.1985 83.0224 30.1608Z" fill="#2D364F"/>
</g>
</mask>
<g mask="url(#mask0)">
<path d="M-25.0441 40.7601C-25.5964 39.8035 -25.2686 38.5803 -24.312 38.028L48.7175 -4.13557C55.8919 -8.27771 65.0657 -5.81959 69.2079 1.3548L92.4956 41.6903C96.6377 48.8647 94.1796 58.0385 87.0052 62.1806L25.234 97.8442C18.0596 101.986 8.88575 99.5282 4.74361 92.3539L-25.0441 40.7601Z" fill="#ACA6EB" fill-opacity="0.4"/>
</g>
<mask id="mask1" mask-type="alpha" maskUnits="userSpaceOnUse" x="33" y="92" width="51" height="51">
<g clip-path="url(#clip1)">
<path d="M63.928 122.887L52.8849 112.083L49.294 115.753L60.3371 126.557L63.928 122.887ZM77.5191 119.236L77.3867 108.107C77.3804 107.596 77.1698 107.109 76.8017 106.749L76.4508 106.406L69.2691 113.746L76.6312 120.949L76.9735 120.599C77.3269 120.238 77.5254 119.747 77.5191 119.236ZM66.9798 112.404L74.6103 104.605L63.1071 93.3505C62.3421 92.6021 61.1263 92.6136 60.3801 93.3763L34.3465 119.985C33.6003 120.748 33.6154 121.964 34.3804 122.712L53.7058 141.62C54.4708 142.368 55.6865 142.357 56.4327 141.594L74.8358 122.784L67.0136 115.131C66.2544 114.388 66.2392 113.161 66.9798 112.404ZM61.368 99.7304C61.616 99.4769 62.0228 99.4731 62.277 99.7218L66.8783 104.224C67.1325 104.472 67.1376 104.879 66.8896 105.133L65.9919 106.05C65.7439 106.304 65.3371 106.307 65.0829 106.059L60.4816 101.557C60.2274 101.308 60.2223 100.901 60.4703 100.648L61.368 99.7304ZM57.7772 103.401C58.0252 103.147 58.432 103.143 58.6862 103.392L63.2875 107.894C63.5417 108.143 63.5467 108.549 63.2987 108.803L62.401 109.72C62.153 109.974 61.7463 109.978 61.492 109.729L56.8908 105.227C56.6365 104.978 56.6315 104.572 56.8795 104.318L57.7772 103.401ZM55.4448 135.24C55.1969 135.493 54.7901 135.497 54.5359 135.248L49.9346 130.747C49.6803 130.498 49.6753 130.091 49.9233 129.838L50.821 128.92C51.069 128.667 51.4758 128.663 51.73 128.911L56.3313 133.413C56.5855 133.662 56.5905 134.069 56.3426 134.322L55.4448 135.24ZM66.6662 123.77L61.28 129.276C60.784 129.783 59.9704 129.79 59.462 129.293L46.5784 116.688C46.0699 116.19 46.0598 115.377 46.5558 114.87L51.9421 109.365C52.4381 108.858 53.2516 108.85 53.76 109.347L66.6437 121.953C67.1521 122.45 67.1622 123.264 66.6662 123.77Z" fill="#2D364F"/>
</g>
</mask>
<g mask="url(#mask1)">
<path d="M41.0667 59.6859C41.8391 58.8963 43.1054 58.8825 43.8949 59.655L77.9704 92.9937C83.8919 98.7872 83.9957 108.284 78.2022 114.206L65.0029 127.697C59.2094 133.618 49.7125 133.722 43.7909 127.928L19.0078 103.681C13.0862 97.8876 12.9824 88.3907 18.7759 82.4692L41.0667 59.6859Z" fill="#ACA6EB" fill-opacity="0.4"/>
</g>
<mask id="mask2" mask-type="alpha" maskUnits="userSpaceOnUse" x="0" y="141" width="36" height="39">
<g clip-path="url(#clip2)">
<path d="M23.2641 157.585L13.5489 163.385L15.4766 166.614L25.1917 160.814L23.2641 157.585ZM23.2193 147.278L15.3139 145.292C14.9506 145.201 14.5667 145.259 14.2428 145.452L13.9342 145.636L17.7895 152.094L24.2663 148.227L24.0826 147.92C23.8928 147.602 23.5826 147.369 23.2193 147.278ZM16.4113 153.464L12.315 146.603L2.19499 152.645C1.52201 153.047 1.30287 153.91 1.70347 154.581L15.6791 177.99C16.0797 178.661 16.9434 178.877 17.6164 178.476L34.618 168.325C35.291 167.924 35.5101 167.061 35.1095 166.39L25.2301 149.842L18.3486 153.95C17.6806 154.349 16.8089 154.13 16.4113 153.464ZM6.38762 155.069C6.25449 154.846 6.32781 154.557 6.55146 154.424L10.5994 152.007C10.8231 151.873 11.1121 151.946 11.2452 152.169L11.7271 152.976C11.8603 153.199 11.7869 153.488 11.5633 153.621L7.5153 156.038C7.29165 156.172 7.00267 156.099 6.86954 155.876L6.38762 155.069ZM8.3153 158.298C8.18217 158.075 8.25549 157.786 8.47914 157.652L12.5271 155.236C12.7508 155.102 13.0398 155.175 13.1729 155.398L13.6548 156.205C13.7879 156.428 13.7146 156.717 13.491 156.85L9.44298 159.267C9.21933 159.4 8.93035 159.328 8.79722 159.105L8.3153 158.298ZM30.4253 165.901C30.5585 166.124 30.4852 166.413 30.2615 166.547L26.2135 168.963C25.9899 169.097 25.7009 169.024 25.5678 168.801L25.0858 167.994C24.9527 167.771 25.026 167.482 25.2497 167.349L29.2977 164.932C29.5213 164.799 29.8103 164.871 29.9434 165.094L30.4253 165.901ZM24.4013 155.811L27.2929 160.654C27.5591 161.1 27.4125 161.678 26.9652 161.945L15.6308 168.712C15.1835 168.979 14.6056 168.834 14.3393 168.388L11.4478 163.545C11.1815 163.099 11.3282 162.521 11.7755 162.254L23.1098 155.487C23.5571 155.22 24.1351 155.365 24.4013 155.811Z" fill="#2D364F"/>
</g>
</mask>
<g mask="url(#mask2)">
<path d="M-25.4895 162.418C-26.0558 161.47 -25.7459 160.242 -24.7975 159.676L1.27408 144.111C8.38712 139.864 17.596 142.188 21.8426 149.301L24.8129 154.276C29.0595 161.389 26.7358 170.598 19.6227 174.845L4.7132 183.746C-2.39985 187.993 -11.6087 185.669 -15.8553 178.556L-25.4895 162.418Z" fill="#ACA6EB" fill-opacity="0.4"/>
</g>
<defs>
<clipPath id="clip0">
<rect width="48.4119" height="64.3591" fill="white" transform="translate(33 24.2059) rotate(-30)"/>
</clipPath>
<clipPath id="clip1">
<rect width="30.8988" height="41.077" fill="white" transform="translate(61.7267 92) rotate(44.3739)"/>
</clipPath>
<clipPath id="clip2">
<rect width="22.6297" height="30.0841" fill="white" transform="translate(0.980591 153.37) rotate(-30.8379)"/>
</clipPath>
</defs>
</svg>
