<svg width="15" height="15" viewBox="0 0 15 15" fill="none" xmlns="http://www.w3.org/2000/svg">
<path d="M13.642 4.60625L12.4714 5.7768C12.3521 5.89614 12.1591 5.89614 12.0398 5.7768L9.22126 2.95833C9.10192 2.83899 9.10192 2.64601 9.22126 2.52667L10.3918 1.35612C10.8667 0.881294 11.6386 0.881294 12.1159 1.35612L13.642 2.88215C14.1193 3.35698 14.1193 4.12888 13.642 4.60625ZM8.21575 3.53218L1.54786 10.2L1.00956 13.2851C0.935919 13.7015 1.29902 14.0621 1.71545 13.991L4.80055 13.4502L11.4684 6.78231C11.5878 6.66297 11.5878 6.46999 11.4684 6.35065L8.64995 3.53218C8.52807 3.41284 8.33509 3.41284 8.21575 3.53218ZM4.15052 9.62871C4.01087 9.48906 4.01087 9.26561 4.15052 9.12596L8.06086 5.21565C8.20051 5.07599 8.42396 5.07599 8.56362 5.21565C8.70327 5.3553 8.70327 5.57875 8.56362 5.7184L4.65328 9.62871C4.51362 9.76837 4.29018 9.76837 4.15052 9.62871ZM3.23388 11.7641H4.45268V12.6859L2.81491 12.9728L2.02523 12.1831L2.31215 10.5453H3.23388V11.7641Z" fill="#6155F5"/>
</svg>
