<svg width="15" height="14" viewBox="0 0 15 14" fill="none" xmlns="http://www.w3.org/2000/svg">
<g clip-path="url(#clip0_10734_38845)">
<path d="M5.58745 11.0867C5.51565 10.9428 5.39055 10.9283 5.33992 10.9283C5.2893 10.9283 5.16419 10.9426 5.09604 11.0787L4.90936 11.4516C4.75432 11.7622 4.30015 11.7279 4.19184 11.4008L3.7822 10.1741L3.52396 10.9489C3.38061 11.3782 2.97925 11.6667 2.52605 11.6667H2.22449C2.00933 11.6667 1.83506 11.4926 1.83506 11.2778C1.83506 11.0629 2.00933 10.8889 2.22449 10.8889H2.52605C2.64361 10.8889 2.74778 10.814 2.78502 10.7027L3.22776 9.37465C3.30807 9.13621 3.53054 8.97579 3.7822 8.97579C4.03387 8.97579 4.25633 9.13597 4.33641 9.37465L4.67424 10.3867C5.15494 9.99322 5.99002 10.151 6.28064 10.7309C6.32664 10.8228 6.41426 10.8755 6.50845 10.883V8.88708L9.62388 5.79808V4.66666H6.31349C5.99221 4.66666 5.72935 4.40416 5.72935 4.08333V0.777771H0.861487C0.537774 0.777771 0.277344 1.03784 0.277344 1.3611V12.6389C0.277344 12.9621 0.537774 13.2222 0.861487 13.2222H9.0395C9.36321 13.2222 9.62364 12.9621 9.62364 12.6389V11.6667L6.50821 11.664C6.11586 11.6565 5.76391 11.4384 5.58745 11.0867V11.0867ZM9.62364 3.74062C9.62364 3.58749 9.56279 3.43923 9.45326 3.32985L7.07045 0.94791C6.96092 0.838535 6.81245 0.777771 6.65668 0.777771H6.50821V3.88888H9.62364V3.74062ZM7.28707 9.21083V10.8889H8.96623L12.9014 6.93242L11.2493 5.28256L7.28707 9.21083V9.21083ZM14.1152 4.84482L13.3395 4.0702C13.0976 3.8286 12.705 3.8286 12.4631 4.0702L11.7998 4.73253L13.452 6.38239L14.1152 5.72006C14.3574 5.47847 14.3574 5.08642 14.1152 4.84482Z" fill="#7344EE"/>
</g>
<defs>
<clipPath id="clip0_10734_38845">
<rect width="14.0194" height="14" fill="white" transform="translate(0.277344)"/>
</clipPath>
</defs>
</svg>
