<svg width="12" height="12" viewBox="0 0 12 12" fill="none" xmlns="http://www.w3.org/2000/svg">
<g clip-path="url(#clip0_9666_33924)">
<path d="M11.8458 6.37923L8.13135 10.1286C7.7997 10.4634 7.22484 10.229 7.22484 9.74921V7.60671H4.21789C3.92383 7.60671 3.68725 7.36791 3.68725 7.07108V4.92858C3.68725 4.63176 3.92383 4.39296 4.21789 4.39296H7.22484V2.25046C7.22484 1.77286 7.79749 1.53629 8.13135 1.87105L11.8458 5.62043C12.0514 5.83022 12.0514 6.16945 11.8458 6.37923ZM5.10229 10.017V9.12431C5.10229 8.97702 4.98289 8.8565 4.83697 8.8565H2.97973C2.58839 8.8565 2.27221 8.53736 2.27221 8.14233V3.85733C2.27221 3.46231 2.58839 3.14316 2.97973 3.14316H4.83697C4.98289 3.14316 5.10229 3.02265 5.10229 2.87535V1.98264C5.10229 1.83535 4.98289 1.71483 4.83697 1.71483H2.97973C1.80791 1.71483 0.857178 2.67449 0.857178 3.85733V8.14233C0.857178 9.32517 1.80791 10.2848 2.97973 10.2848H4.83697C4.98289 10.2848 5.10229 10.1643 5.10229 10.017Z" fill="#2D364F"/>
</g>
<defs>
<clipPath id="clip0_9666_33924">
<rect width="12" height="12" fill="white"/>
</clipPath>
</defs>
</svg>
