<svg width="27" height="26" viewBox="0 0 27 26" fill="none" xmlns="http://www.w3.org/2000/svg">
<g clip-path="url(#clip0_15919_19000)">
<path d="M26.1948 14.6258H14.4175L22.2609 22.6507C22.5607 22.9575 23.054 22.9823 23.3623 22.6853C25.283 20.8338 26.6042 18.3379 26.9919 15.5322C27.0584 15.0518 26.6688 14.6258 26.1948 14.6258ZM25.4091 11.3352C25.0001 5.26883 20.2622 0.42125 14.3331 0.00281282C13.8805 -0.0291794 13.4993 0.361328 13.4993 0.825469V12.1883H24.6055C25.0592 12.1883 25.4404 11.7983 25.4091 11.3352ZM11.117 14.6258V2.5759C11.117 2.09094 10.7005 1.69231 10.2315 1.76035C4.31683 2.61551 -0.204178 7.90234 0.00626355 14.2383C0.222661 20.7454 5.6986 26.0815 12.0615 25.9998C14.5629 25.9678 16.8743 25.1431 18.7747 23.7639C19.1668 23.4795 19.1926 22.8889 18.8527 22.5411L11.117 14.6258Z" fill="#7344EE"/>
</g>
<defs>
<clipPath id="clip0_15919_19000">
<rect width="27" height="26" fill="white"/>
</clipPath>
</defs>
</svg>
