<svg width="13" height="14" viewBox="0 0 13 14" fill="none" xmlns="http://www.w3.org/2000/svg">
<path d="M10.2143 8.75C9.55825 8.75 8.95529 8.9638 8.47931 9.32135L5.50538 7.56987C5.59345 7.19448 5.59345 6.80549 5.50538 6.4301L8.47931 4.67863C8.95529 5.0362 9.55825 5.25 10.2143 5.25C11.7528 5.25 13 4.07474 13 2.625C13 1.17526 11.7528 0 10.2143 0C8.67579 0 7.42857 1.17526 7.42857 2.625C7.42857 2.82073 7.4515 3.01137 7.49462 3.19487L4.52069 4.94635C4.04471 4.5888 3.44175 4.375 2.78571 4.375C1.24722 4.375 0 5.55026 0 7C0 8.44974 1.24722 9.625 2.78571 9.625C3.44175 9.625 4.04471 9.4112 4.52069 9.05365L7.49462 10.8051C7.45066 10.9923 7.42851 11.1833 7.42857 11.375C7.42857 12.8247 8.67579 14 10.2143 14C11.7528 14 13 12.8247 13 11.375C13 9.92526 11.7528 8.75 10.2143 8.75Z" fill="#7344EE"/>
</svg>
