<svg width="13" height="13" viewBox="0 0 13 13" fill="none" xmlns="http://www.w3.org/2000/svg">
<path d="M12.8223 11.2404L10.2908 8.70898C10.1766 8.59473 10.0217 8.53125 9.85918 8.53125H9.44531C10.1461 7.63496 10.5625 6.50762 10.5625 5.28125C10.5625 2.36387 8.19863 0 5.28125 0C2.36387 0 0 2.36387 0 5.28125C0 8.19863 2.36387 10.5625 5.28125 10.5625C6.50762 10.5625 7.63496 10.1461 8.53125 9.44531V9.85918C8.53125 10.0217 8.59473 10.1766 8.70898 10.2908L11.2404 12.8223C11.4791 13.0609 11.865 13.0609 12.1012 12.8223L12.8197 12.1037C13.0584 11.865 13.0584 11.4791 12.8223 11.2404ZM5.28125 8.53125C3.48613 8.53125 2.03125 7.07891 2.03125 5.28125C2.03125 3.48613 3.48359 2.03125 5.28125 2.03125C7.07637 2.03125 8.53125 3.48359 8.53125 5.28125C8.53125 7.07637 7.07891 8.53125 5.28125 8.53125Z" fill="white"/>
</svg>
