<svg width="10" height="11" viewBox="0 0 10 11" fill="none" xmlns="http://www.w3.org/2000/svg">
<path d="M9.64286 0.687321H6.96429L6.75446 0.285563C6.71002 0.199671 6.64155 0.127421 6.55677 0.0769406C6.47198 0.02646 6.37425 -0.000248159 6.27455 -0.000179339H3.72321C3.62375 -0.000547378 3.52618 0.0260612 3.4417 0.076598C3.35721 0.127135 3.28923 0.199555 3.24554 0.285563L3.03571 0.687321H0.357143C0.262423 0.687321 0.171582 0.723537 0.104605 0.788003C0.0376275 0.852468 0 0.939902 0 1.03107L0 1.71857C0 1.80974 0.0376275 1.89717 0.104605 1.96164C0.171582 2.0261 0.262423 2.06232 0.357143 2.06232H9.64286C9.73758 2.06232 9.82842 2.0261 9.8954 1.96164C9.96237 1.89717 10 1.80974 10 1.71857V1.03107C10 0.939902 9.96237 0.852468 9.8954 0.788003C9.82842 0.723537 9.73758 0.687321 9.64286 0.687321ZM1.1875 10.033C1.20453 10.2948 1.32459 10.5406 1.52323 10.7202C1.72186 10.8998 1.98415 10.9998 2.2567 10.9998H7.7433C8.01585 10.9998 8.27814 10.8998 8.47677 10.7202C8.67541 10.5406 8.79547 10.2948 8.8125 10.033L9.28571 2.74982H0.714286L1.1875 10.033Z" fill="#2D364F"/>
</svg>
