<svg width="18" height="16" viewBox="0 0 18 16" fill="none" xmlns="http://www.w3.org/2000/svg">
<g clip-path="url(#clip0_9596_29147)">
<path d="M4.90814 1.10932C4.86895 1.07436 4.82238 1.04662 4.7711 1.02769C4.71982 1.00877 4.66484 0.999023 4.60932 0.999023C4.55379 0.999023 4.49881 1.00877 4.44753 1.02769C4.39625 1.04662 4.34968 1.07436 4.31049 1.10932L2.07174 3.08776L1.27369 2.39651C1.2345 2.36155 1.18793 2.33381 1.13665 2.31488C1.08537 2.29595 1.03039 2.28621 0.974864 2.28621C0.919339 2.28621 0.864361 2.29595 0.813081 2.31488C0.761801 2.33381 0.715229 2.36155 0.676036 2.39651L0.124083 2.88776C0.0847527 2.9226 0.0535465 2.96399 0.0322536 3.00957C0.0109607 3.05516 0 3.10403 0 3.15338C0 3.20274 0.0109607 3.25161 0.0322536 3.29719C0.0535465 3.34277 0.0847527 3.38417 0.124083 3.41901L1.79717 4.90026C1.88068 4.97082 1.9915 5.01017 2.10672 5.01017C2.22194 5.01017 2.33276 4.97082 2.41627 4.90026L2.96436 4.41213L5.50264 2.15619C5.58172 2.08584 5.62641 1.9906 5.627 1.89115C5.62759 1.79169 5.58404 1.69604 5.5058 1.62494L4.90814 1.10932ZM4.90814 6.08401C4.86895 6.04905 4.82238 6.02131 4.7711 6.00238C4.71982 5.98345 4.66484 5.97371 4.60932 5.97371C4.55379 5.97371 4.49881 5.98345 4.44753 6.00238C4.39625 6.02131 4.34968 6.04905 4.31049 6.08401L2.07174 8.07526L1.27369 7.38463C1.2345 7.34967 1.18793 7.32193 1.13665 7.30301C1.08537 7.28408 1.03039 7.27434 0.974864 7.27434C0.919339 7.27434 0.864361 7.28408 0.813081 7.30301C0.761801 7.32193 0.715229 7.34967 0.676036 7.38463L0.124083 7.87494C0.0847527 7.90978 0.0535465 7.95118 0.0322536 7.99676C0.0109607 8.04234 0 8.09121 0 8.14057C0 8.18992 0.0109607 8.23879 0.0322536 8.28438C0.0535465 8.32996 0.0847527 8.37136 0.124083 8.40619L1.79295 9.89057C1.8764 9.96111 1.98716 10.0004 2.10232 10.0004C2.21749 10.0004 2.32825 9.96111 2.4117 9.89057L2.96365 9.40026L5.50193 7.14338C5.58072 7.07352 5.62526 6.97882 5.62585 6.8799C5.62644 6.78098 5.58304 6.68586 5.5051 6.61526L4.90814 6.08401ZM2.24998 11.4999C1.31869 11.4999 0.541739 12.1718 0.541739 12.9999C0.541739 13.8281 1.3194 14.4999 2.24998 14.4999C2.69753 14.4999 3.12676 14.3419 3.44322 14.0606C3.75969 13.7793 3.93748 13.3978 3.93748 12.9999C3.93748 12.6021 3.75969 12.2206 3.44322 11.9393C3.12676 11.658 2.69753 11.4999 2.24998 11.4999ZM17.4375 11.9999H7.31248C7.1633 11.9999 7.02022 12.0526 6.91473 12.1464C6.80924 12.2402 6.74998 12.3673 6.74998 12.4999V13.4999C6.74998 13.6326 6.80924 13.7597 6.91473 13.8535C7.02022 13.9473 7.1633 13.9999 7.31248 13.9999H17.4375C17.5867 13.9999 17.7297 13.9473 17.8352 13.8535C17.9407 13.7597 18 13.6326 18 13.4999V12.4999C18 12.3673 17.9407 12.2402 17.8352 12.1464C17.7297 12.0526 17.5867 11.9999 17.4375 11.9999ZM17.4375 1.99994H7.31248C7.1633 1.99994 7.02022 2.05262 6.91473 2.14639C6.80924 2.24016 6.74998 2.36734 6.74998 2.49994V3.49994C6.74998 3.63255 6.80924 3.75973 6.91473 3.8535C7.02022 3.94727 7.1633 3.99994 7.31248 3.99994H17.4375C17.5867 3.99994 17.7297 3.94727 17.8352 3.8535C17.9407 3.75973 18 3.63255 18 3.49994V2.49994C18 2.36734 17.9407 2.24016 17.8352 2.14639C17.7297 2.05262 17.5867 1.99994 17.4375 1.99994ZM17.4375 6.99994H7.31248C7.1633 6.99994 7.02022 7.05262 6.91473 7.14639C6.80924 7.24016 6.74998 7.36734 6.74998 7.49994V8.49994C6.74998 8.63255 6.80924 8.75973 6.91473 8.8535C7.02022 8.94727 7.1633 8.99994 7.31248 8.99994H17.4375C17.5867 8.99994 17.7297 8.94727 17.8352 8.8535C17.9407 8.75973 18 8.63255 18 8.49994V7.49994C18 7.36734 17.9407 7.24016 17.8352 7.14639C17.7297 7.05262 17.5867 6.99994 17.4375 6.99994Z" fill="#7344EE"/>
</g>
<defs>
<clipPath id="clip0_9596_29147">
<rect width="18" height="16" fill="white"/>
</clipPath>
</defs>
</svg>
