<svg width="13" height="13" viewBox="0 0 13 13" fill="none" xmlns="http://www.w3.org/2000/svg">
<g clip-path="url(#clip0_10438_3550)">
<path d="M3.5448 0.901139C3.5165 0.872734 3.48286 0.850196 3.44582 0.834818C3.40879 0.81944 3.36908 0.811523 3.32898 0.811523C3.28888 0.811523 3.24917 0.81944 3.21214 0.834818C3.1751 0.850196 3.14147 0.872734 3.11316 0.901139L1.49629 2.50862L0.919919 1.94698C0.891613 1.91857 0.857977 1.89604 0.820942 1.88066C0.783907 1.86528 0.7442 1.85736 0.704099 1.85736C0.663998 1.85736 0.624291 1.86528 0.587256 1.88066C0.55022 1.89604 0.516585 1.91857 0.488279 1.94698L0.0896458 2.34612C0.0612408 2.37443 0.038703 2.40806 0.0233248 2.4451C0.00794659 2.48213 3.05176e-05 2.52184 3.05176e-05 2.56194C3.05176e-05 2.60204 0.00794659 2.64175 0.0233248 2.67878C0.038703 2.71582 0.0612408 2.74945 0.0896458 2.77776L1.29799 3.98128C1.3583 4.03861 1.43833 4.07058 1.52155 4.07058C1.60477 4.07058 1.6848 4.03861 1.74511 3.98128L2.14095 3.58467L3.97416 1.75172C4.03128 1.69456 4.06355 1.61718 4.06398 1.53637C4.0644 1.45557 4.03295 1.37785 3.97644 1.32008L3.5448 0.901139ZM3.5448 4.94307C3.5165 4.91467 3.48286 4.89213 3.44582 4.87675C3.40879 4.86137 3.36908 4.85346 3.32898 4.85346C3.28888 4.85346 3.24917 4.86137 3.21214 4.87675C3.1751 4.89213 3.14147 4.91467 3.11316 4.94307L1.49629 6.56096L0.919919 5.99983C0.891613 5.97142 0.857977 5.94889 0.820942 5.93351C0.783907 5.91813 0.7442 5.91021 0.704099 5.91021C0.663998 5.91021 0.624291 5.91813 0.587256 5.93351C0.55022 5.94889 0.516585 5.97142 0.488279 5.99983L0.0896458 6.39821C0.0612408 6.42652 0.038703 6.46015 0.0233248 6.49719C0.00794659 6.53422 3.05176e-05 6.57393 3.05176e-05 6.61403C3.05176e-05 6.65413 0.00794659 6.69384 0.0233248 6.73087C0.038703 6.76791 0.0612408 6.80154 0.0896458 6.82985L1.29494 8.0359C1.35521 8.09322 1.4352 8.12518 1.51838 8.12518C1.60155 8.12518 1.68154 8.09322 1.74181 8.0359L2.14045 7.63752L3.97365 5.80381C4.03055 5.74705 4.06272 5.6701 4.06314 5.58973C4.06357 5.50936 4.03223 5.43208 3.97593 5.37471L3.5448 4.94307ZM1.62502 9.34352C0.952419 9.34352 0.391286 9.88942 0.391286 10.5623C0.391286 11.2351 0.952927 11.781 1.62502 11.781C1.94825 11.781 2.25824 11.6526 2.4868 11.4241C2.71536 11.1955 2.84377 10.8855 2.84377 10.5623C2.84377 10.239 2.71536 9.92904 2.4868 9.70048C2.25824 9.47192 1.94825 9.34352 1.62502 9.34352ZM12.5938 9.74977H5.28127C5.17352 9.74977 5.07019 9.79257 4.994 9.86876C4.91782 9.94494 4.87502 10.0483 4.87502 10.156V10.9685C4.87502 11.0763 4.91782 11.1796 4.994 11.2558C5.07019 11.332 5.17352 11.3748 5.28127 11.3748H12.5938C12.7015 11.3748 12.8048 11.332 12.881 11.2558C12.9572 11.1796 13 11.0763 13 10.9685V10.156C13 10.0483 12.9572 9.94494 12.881 9.86876C12.8048 9.79257 12.7015 9.74977 12.5938 9.74977ZM12.5938 1.62477H5.28127C5.17352 1.62477 5.07019 1.66757 4.994 1.74376C4.91782 1.81995 4.87502 1.92328 4.87502 2.03102V2.84352C4.87502 2.95127 4.91782 3.0546 4.994 3.13078C5.07019 3.20697 5.17352 3.24977 5.28127 3.24977H12.5938C12.7015 3.24977 12.8048 3.20697 12.881 3.13078C12.9572 3.0546 13 2.95127 13 2.84352V2.03102C13 1.92328 12.9572 1.81995 12.881 1.74376C12.8048 1.66757 12.7015 1.62477 12.5938 1.62477ZM12.5938 5.68727H5.28127C5.17352 5.68727 5.07019 5.73007 4.994 5.80626C4.91782 5.88245 4.87502 5.98578 4.87502 6.09352V6.90602C4.87502 7.01377 4.91782 7.1171 4.994 7.19328C5.07019 7.26947 5.17352 7.31227 5.28127 7.31227H12.5938C12.7015 7.31227 12.8048 7.26947 12.881 7.19328C12.9572 7.1171 13 7.01377 13 6.90602V6.09352C13 5.98578 12.9572 5.88245 12.881 5.80626C12.8048 5.73007 12.7015 5.68727 12.5938 5.68727Z" fill="white"/>
</g>
<defs>
<clipPath id="clip0_10438_3550">
<rect width="13" height="13" fill="white"/>
</clipPath>
</defs>
</svg>
