<svg width="12" height="12" viewBox="0 0 12 12" fill="none" xmlns="http://www.w3.org/2000/svg">
<path fill-rule="evenodd" clip-rule="evenodd" d="M8.39996 3.52928C8.39996 5.02526 7.32524 6.23775 5.99996 6.23775C4.67468 6.23775 3.59996 5.02526 3.59996 3.52928C3.59996 2.0333 4.67468 0.820801 5.99996 0.820801C7.32524 0.820801 8.39996 2.0333 8.39996 3.52928ZM6.00025 7.32113C8.90874 7.32113 11.4272 8.52399 11.9762 10.2602C12.0972 10.6432 11.7402 11.0203 11.2702 11.0346C7.81974 11.1391 4.18026 11.1391 0.729769 11.0346C0.259771 11.0203 -0.0972278 10.6432 0.0237718 10.2602C0.57277 8.52399 3.09126 7.32113 6.00025 7.32113Z" fill="#2D364F"/>
</svg>
