<svg width="15" height="15" viewBox="0 0 15 15" fill="none" xmlns="http://www.w3.org/2000/svg">
<path d="M7.56635 9.40251L5.94997 7.64551L5.96906 7.62451C7.07634 6.2665 7.86542 4.70551 8.32998 3.0535H10.1945V1.65001H5.73997V0.25H4.46723V1.65001H0.0126953V3.043H7.12087C6.69133 4.39399 6.01995 5.67499 5.10359 6.79501C4.51177 6.07051 4.02176 5.28301 3.63359 4.45H2.36088C2.82541 5.59098 3.4618 6.66901 4.25723 7.64199L1.02132 11.1595L1.92179 12.15L5.10362 8.64999L7.08272 10.827L7.56635 9.40251Z" fill="#2D364F"/>
<path d="M11.1491 5.85001H9.87634L7.0127 14.25H8.28544L9.00135 12.15H12.0241L12.74 14.25H14.0127L11.1491 5.85001ZM9.47862 10.75L10.5127 7.71549L11.5468 10.75H9.47862Z" fill="#2D364F"/>
</svg>
