<svg width="437" height="512" viewBox="0 0 437 512" fill="none" xmlns="http://www.w3.org/2000/svg">
<path fill-rule="evenodd" clip-rule="evenodd" d="M63.7035 0.677661C56.4525 1.91666 49.2325 4.49966 40.4405 9.00066C34.3275 12.1307 30.3135 15.2257 23.4225 22.1267C9.2295 36.3387 2.8495 49.7997 0.9225 69.5967C-0.3075 82.2387 -0.3075 429.075 0.9225 441.717C2.8495 461.514 9.2295 474.975 23.4225 489.187C33.3865 499.164 42.3285 504.561 55.9405 508.814C63.0735 511.042 64.8415 511.157 92.1145 511.157C119.642 511.157 120.901 511.073 123.614 509.065C133.434 501.796 133.436 489.531 123.62 482.249C120.971 480.284 119.15 480.123 93.6205 479.59C64.0305 478.972 62.3245 478.678 52.8095 472.573C46.0495 468.235 40.2485 461.528 36.6055 453.837L33.4405 447.157V255.605V64.0527L37.1665 56.5147C42.9745 44.7617 53.0865 36.4157 65.4005 33.2087C70.6475 31.8427 87.8255 31.6567 208.941 31.6567C330.056 31.6567 347.233 31.8427 352.48 33.2087C364.792 36.4147 374.905 44.7607 380.714 56.5117L384.44 64.0467L384.94 121.602C385.436 178.742 385.456 179.183 387.641 182.695C390.384 187.106 396.539 190.657 401.44 190.657C406.341 190.657 412.497 187.106 415.24 182.695C417.417 179.196 417.443 178.627 417.75 130.657C417.923 103.473 417.62 77.3177 417.059 71.1457C415.131 49.9317 409.047 36.7357 394.458 22.1267C384.724 12.3797 376.09 7.08866 362.44 2.50666L355.44 0.156661L211.941 0.0126613C133.016 -0.0663387 66.3095 0.232661 63.7035 0.677661ZM72.3775 130.112C66.6565 133.541 64.5455 137.885 65.1365 145.012C65.5125 149.544 66.2015 151.332 68.5245 153.802C74.3655 160.014 65.8305 159.657 208.441 159.657C351.101 159.657 342.511 160.018 348.376 153.781C350.781 151.224 351.39 149.582 351.742 144.714C352.265 137.484 350.073 133.224 344.103 129.869L340.168 127.657L208.305 127.666L76.4405 127.676L72.3775 130.112ZM72.3775 226.112C66.6565 229.541 64.5455 233.885 65.1365 241.012C65.5125 245.544 66.2015 247.332 68.5245 249.802C74.2685 255.91 70.2895 255.657 160.441 255.657C250.628 255.657 246.61 255.914 252.377 249.781C254.782 247.224 255.391 245.582 255.743 240.714C256.266 233.484 254.074 229.224 248.104 225.869L244.169 223.657L160.305 223.666L76.4405 223.676L72.3775 226.112ZM346.44 237.045C343.69 237.715 338.065 239.783 333.94 241.64C326.551 244.966 325.323 246.13 250.619 320.586C208.917 362.15 174.129 397.419 173.314 398.962C172.106 401.248 171.638 411.023 170.78 451.772C170.201 479.274 170.003 502.052 170.34 502.389C171.28 503.33 270.122 500.997 272.745 499.972C275.978 498.71 424.401 350.16 427.953 344.631C433.639 335.781 436.185 327.192 436.689 315.157C437.215 302.586 435.82 295.553 430.654 284.742C428.054 279.303 424.716 275.36 411.473 262.079C393.943 244.501 387.624 240.209 374.837 237.194C367.262 235.409 353.454 235.336 346.44 237.045ZM370.512 269.328C374.46 270.667 377.873 273.382 387.678 282.984C402.432 297.433 404.945 301.674 404.93 312.103C404.917 321.633 402.168 327.19 393.039 336.142L385.915 343.128L357.694 314.907L329.474 286.686L335.457 280.595C342.613 273.31 346.005 270.76 350.826 269.037C355.895 267.225 364.695 267.356 370.512 269.328ZM311.193 417.814L259.44 469.478L231.111 469.883L202.784 470.288L203.112 441.475L203.441 412.662L254.936 361.161L306.43 309.66L334.688 337.905L362.945 366.149L311.193 417.814ZM72.3775 322.112C66.6565 325.541 64.5455 329.885 65.1365 337.012C65.5125 341.544 66.2015 343.332 68.5245 345.802C74.0435 351.672 73.9235 351.659 120.659 351.641C163.082 351.624 163.475 351.605 167.441 349.386C175.686 344.774 178.191 333.608 172.62 326.304C167.509 319.603 167.928 319.656 119.789 319.666L76.4405 319.676L72.3775 322.112Z" fill="#7344EE"/>
</svg>
