<svg width="9" height="10" viewBox="0 0 9 10" fill="none" xmlns="http://www.w3.org/2000/svg">
<path d="M7.95536 1.08911H5.74554L5.57243 0.74475C5.53576 0.671128 5.47928 0.6092 5.40933 0.565931C5.33939 0.522662 5.25875 0.499769 5.17651 0.499828H3.07165C2.98959 0.499512 2.9091 0.52232 2.8394 0.565637C2.7697 0.608954 2.71362 0.671029 2.67757 0.74475L2.50446 1.08911H0.294643C0.216499 1.08911 0.141555 1.12016 0.0862989 1.17541C0.0310426 1.23067 0 1.30561 0 1.38376L0 1.97304C0 2.05119 0.0310426 2.12613 0.0862989 2.18139C0.141555 2.23664 0.216499 2.26768 0.294643 2.26768H7.95536C8.0335 2.26768 8.10845 2.23664 8.1637 2.18139C8.21896 2.12613 8.25 2.05119 8.25 1.97304V1.38376C8.25 1.30561 8.21896 1.23067 8.1637 1.17541C8.10845 1.12016 8.0335 1.08911 7.95536 1.08911ZM0.979688 9.09972C0.993741 9.32413 1.09279 9.53475 1.25666 9.6887C1.42054 9.84265 1.63693 9.92837 1.86177 9.9284H6.38823C6.61307 9.92837 6.82946 9.84265 6.99334 9.6887C7.15721 9.53475 7.25626 9.32413 7.27031 9.09972L7.66071 2.85697H0.589286L0.979688 9.09972Z" fill="#2D364F"/>
</svg>
