<svg width="14" height="14" viewBox="0 0 14 14" fill="none" xmlns="http://www.w3.org/2000/svg">
<path d="M13.8424 12.0316C14.2911 12.9064 13.7279 14 12.8319 14H1.16799C0.270212 14 -0.290323 12.9047 0.157434 12.0316L5.98945 0.65584C6.43831 -0.219406 7.56251 -0.21782 8.01056 0.65584L13.8424 12.0316ZM7.00001 9.67969C6.38252 9.67969 5.88195 10.2428 5.88195 10.9375C5.88195 11.6322 6.38252 12.1953 7.00001 12.1953C7.61749 12.1953 8.11806 11.6322 8.11806 10.9375C8.11806 10.2428 7.61749 9.67969 7.00001 9.67969ZM5.93851 5.15851L6.11881 8.87726C6.12724 9.05127 6.25514 9.1875 6.41004 9.1875H7.58998C7.74487 9.1875 7.87277 9.05127 7.8812 8.87726L8.0615 5.15851C8.07062 4.97055 7.93759 4.8125 7.77027 4.8125H6.22971C6.0624 4.8125 5.9294 4.97055 5.93851 5.15851Z" fill="#E35F3C"/>
</svg>
