<?xml version="1.0" standalone="no"?>
<!DOCTYPE svg PUBLIC "-//W3C//DTD SVG 20010904//EN"
 "http://www.w3.org/TR/2001/REC-SVG-20010904/DTD/svg10.dtd">
<svg version="1.0" xmlns="http://www.w3.org/2000/svg"
 width="510.000000pt" height="510.000000pt" viewBox="0 0 510.000000 510.000000"
 preserveAspectRatio="xMidYMid meet">
<metadata>
Created by potrace 1.11, written by Peter Selinger 2001-2013
</metadata>
<g transform="translate(0.000000,510.000000) scale(0.100000,-0.100000)"
fill="#000000" stroke="none">
<path d="M4314 5086 c-52 -23 -556 -317 -597 -349 -47 -37 -107 -123 -138
-202 l-24 -60 3 -450 c4 -480 4 -485 54 -519 12 -9 43 -16 68 -16 41 0 76 18
340 170 236 137 305 182 347 225 59 62 107 154 121 235 13 71 4 862 -10 908
-19 61 -95 88 -164 58z"/>
<path d="M1540 3926 c-498 -288 -923 -540 -946 -559 -22 -20 -58 -68 -80 -109
l-39 -73 0 -903 0 -904 28 -24 c34 -29 92 -32 140 -7 18 9 509 291 1092 628
583 336 1069 615 1081 620 11 6 99 55 194 110 188 108 242 152 280 230 24 49
25 56 28 325 4 302 0 352 -29 381 -36 36 -80 25 -210 -50 l-119 -70 -2 159 -3
159 -163 -95 c-205 -120 -260 -131 -302 -61 -19 30 -20 51 -20 317 0 281 -7
451 -19 449 -3 0 -413 -236 -911 -523z m802 -463 c16 -15 18 -36 18 -257 -1
-329 5 -318 -239 -460 -150 -87 -195 -102 -220 -72 -8 10 -14 87 -18 233 -8
331 -3 341 232 479 88 51 171 94 184 94 14 0 33 -7 43 -17z"/>
<path d="M2835 2326 c-59 -19 -2195 -1253 -2228 -1287 -40 -43 -38 -98 6 -143
44 -46 1465 -866 1532 -883 63 -17 147 -17 210 0 67 17 2198 1246 2243 1293
43 45 45 103 5 143 -38 36 -1477 866 -1528 880 -53 14 -190 13 -240 -3z"/>
</g>
</svg>
